<svg width="154" height="56" viewBox="0 0 154 56" fill="none" xmlns="http://www.w3.org/2000/svg">
<g clip-path="url(#clip0_241_673)">
<path d="M0.00024235 21.671C0.13449 19.123 0.800358 16.7146 1.93072 14.4351C2.70936 12.8644 3.69205 11.4306 4.85463 10.1231C6.97574 7.73882 9.51839 5.93184 12.4342 4.65112C13.8949 4.00942 15.4092 3.52613 16.9718 3.20125C17.5974 3.06969 18.2284 2.95961 18.862 2.88174C19.3185 2.82536 19.7803 2.78508 20.2394 2.75018C20.9831 2.69111 21.7269 2.67769 22.4706 2.6938C23.1553 2.70722 23.8372 2.76092 24.5192 2.8361C24.9783 2.88711 25.4348 2.95155 25.8885 3.02404C26.8873 3.18783 27.87 3.42142 28.8393 3.71408C30.9013 4.34235 32.8399 5.23644 34.6441 6.41782C37.2217 8.10665 39.3562 10.2358 40.9914 12.8563C42.154 14.717 42.9675 16.72 43.432 18.8652C43.5743 19.5204 43.671 20.1809 43.7434 20.8494C43.8616 21.9637 43.867 23.0806 43.7891 24.1949C43.7059 25.4138 43.483 26.614 43.1474 27.7927C42.4144 30.3622 41.1874 32.6739 39.5012 34.7414C37.4526 37.2518 34.9395 39.1715 32.021 40.565C30.4046 41.3383 28.7185 41.9075 26.9652 42.2834C26.3691 42.4123 25.7677 42.5197 25.1636 42.6029C24.7528 42.6593 24.3366 42.6969 23.9205 42.7371C22.9378 42.8338 21.9578 42.815 20.9751 42.8043C20.3495 42.7989 19.7293 42.7237 19.1063 42.6539C18.6633 42.6029 18.223 42.5385 17.7827 42.4633C16.4751 42.2431 15.1971 41.9048 13.9486 41.4618C11.9026 40.7342 9.99631 39.7381 8.24035 38.46C6.01185 36.8356 4.15654 34.8622 2.71741 32.5048C1.63001 30.7247 0.854056 28.8157 0.397615 26.7805C0.257998 26.1576 0.153285 25.5239 0.0807909 24.8876C0.0378317 24.5171 0.0082972 24.1465 -0.0078125 23.776M25.1931 28.9284C25.2119 28.8559 25.2334 28.813 25.2334 28.7727C25.2388 28.625 25.2388 28.4747 25.2388 28.327C25.2388 24.4553 25.2388 20.5836 25.2388 16.7119C25.2388 16.5777 25.2388 16.4434 25.2388 16.3092C25.2388 16.2662 25.2495 16.2206 25.2549 16.1776C25.2576 16.1454 25.322 16.0998 25.3542 16.1078C25.4428 16.1266 25.5287 16.1481 25.6147 16.1642C26.4228 16.3145 27.2015 16.5616 27.9506 16.8972C29.0111 17.3724 29.7978 18.1349 30.265 19.2089C30.5093 19.7728 30.6785 20.3581 30.7402 20.9702C30.7939 21.518 30.8449 22.0657 30.8423 22.6188C30.8396 23.3625 30.8369 24.1063 30.7563 24.85C30.6785 25.5669 30.4932 26.2515 30.1898 26.9067C30.0824 27.1349 29.9535 27.3551 29.8032 27.5591C29.285 28.2518 28.6352 28.7835 27.8459 29.1432C27.2203 29.4278 26.5651 29.6185 25.8939 29.7608C25.4724 29.8521 25.0481 29.9219 24.6185 29.9756C24.0869 30.0427 23.5553 30.1098 23.0183 30.1206C22.3337 30.134 21.649 30.1259 20.9643 30.1206C20.7871 30.1206 20.6045 30.1179 20.43 30.091C20.0327 30.032 19.6299 30.0185 19.2325 29.9595C18.4808 29.8521 17.737 29.7044 17.0121 29.4789C16.3838 29.2829 15.7931 29.0117 15.2454 28.6385C14.4721 28.1068 13.9244 27.4061 13.5861 26.5335C13.323 25.8595 13.1941 25.1615 13.1484 24.4446C13.135 24.2378 13.1323 24.0284 13.1189 23.819C13.0491 22.7906 13.1055 21.765 13.2344 20.7447C13.3149 20.103 13.519 19.4962 13.8089 18.9243C14.1365 18.2746 14.6117 17.7483 15.2132 17.3348C15.5219 17.1227 15.8495 16.9482 16.1932 16.8086C16.5368 16.669 16.8859 16.5347 17.2457 16.4407C17.3611 16.4112 17.4739 16.3763 17.5893 16.3441C17.6645 16.3226 17.7075 16.2608 17.7102 16.1776C17.7102 16.1481 17.7102 16.1185 17.7102 16.089C17.6994 15.4043 17.6887 14.7197 17.678 14.035C17.678 13.976 17.6645 13.9169 17.6565 13.8578C17.6511 13.8283 17.592 13.7746 17.5598 13.7773C17.5007 13.7773 17.439 13.7773 17.3826 13.788C16.7678 13.89 16.1502 13.9894 15.5407 14.1317C14.4963 14.3733 13.4733 14.6821 12.4879 15.1117C11.3603 15.603 10.3185 16.2259 9.41099 17.0636C8.41756 17.9819 7.68725 19.072 7.27377 20.3634C6.87103 21.6146 6.77706 22.898 6.95695 24.2029C7.13952 25.5159 7.65235 26.6892 8.45515 27.739C8.88206 28.2975 9.37877 28.7915 9.92113 29.2345C10.5682 29.7635 11.2743 30.2065 12.0208 30.5824C13.7767 31.4711 15.6508 31.9759 17.5893 32.2739C17.882 32.3195 18.1774 32.3544 18.4727 32.3974C18.5264 32.4055 18.5828 32.4672 18.5855 32.5209C18.6016 32.9532 18.6069 33.3855 18.5479 33.8124C18.5183 34.0191 18.5022 34.2232 18.4405 34.4272C18.3277 34.8112 18.0726 35.0313 17.6994 35.1226C17.5115 35.1683 17.3209 35.2032 17.1275 35.2166C16.5181 35.2596 15.9086 35.2891 15.2991 35.3267C15.1219 35.3374 14.942 35.3562 14.7648 35.3723C14.6252 35.3857 14.507 35.4529 14.4157 35.5522C14.3459 35.6274 14.2842 35.7133 14.2358 35.8046C14.1016 36.0516 14.1016 36.3174 14.1231 36.5886C14.1392 36.7873 14.2117 36.9672 14.3325 37.1229C14.4936 37.335 14.7057 37.4612 14.9823 37.4505C15.1756 37.4424 15.3689 37.4451 15.5622 37.429C16.2603 37.378 16.9611 37.378 17.6618 37.3726C18.1827 37.3672 18.7036 37.3619 19.2245 37.3619C21.6383 37.3646 24.0493 37.3672 26.4631 37.378C27.0431 37.378 27.623 37.4129 28.2056 37.429C28.4285 37.437 28.6513 37.4424 28.8742 37.4505C29.0997 37.4612 29.2769 37.3646 29.4327 37.2142C29.5401 37.1068 29.6179 36.9779 29.6609 36.8356C29.7012 36.7094 29.7307 36.5752 29.7361 36.4409C29.7441 36.1859 29.6931 35.9362 29.5535 35.716C29.4273 35.5173 29.2608 35.3804 29.0138 35.367C28.8796 35.3589 28.748 35.3347 28.6138 35.332C28.0016 35.324 27.3948 35.2596 26.7853 35.222C26.5625 35.2085 26.3396 35.171 26.1248 35.1199C25.7462 35.0313 25.4965 34.7924 25.3945 34.4138C25.3596 34.2849 25.322 34.1534 25.3113 34.0218C25.271 33.5627 25.2253 33.1035 25.2361 32.639C25.2361 32.5961 25.2361 32.5478 25.2549 32.5075C25.271 32.4699 25.3059 32.435 25.3408 32.4135C25.3784 32.392 25.424 32.384 25.4697 32.3813C25.8858 32.3464 26.294 32.2712 26.7074 32.2041C27.6337 32.0564 28.5439 31.8389 29.4407 31.5597C30.6677 31.1757 31.8384 30.671 32.9258 29.9809C33.9031 29.3607 34.765 28.617 35.4684 27.6907C36.3572 26.5227 36.8646 25.2044 36.9908 23.7465C37.0633 22.898 37.015 22.0523 36.8378 21.2146C36.5612 19.8882 35.9866 18.7122 35.0925 17.6946C34.4696 16.9831 33.742 16.3978 32.9365 15.9011C32.0317 15.3453 31.0651 14.9237 30.0583 14.5962C28.5976 14.1209 27.0941 13.8283 25.5663 13.6779C25.5207 13.6726 25.4777 13.6699 25.4321 13.6645C25.3005 13.6484 25.2415 13.5866 25.2361 13.4658C25.2334 13.3477 25.2334 13.2269 25.2334 13.1087C25.2253 11.6051 25.2361 10.1016 25.2952 8.598C25.3086 8.25701 25.3059 7.91334 25.365 7.57503C25.4106 7.30117 25.3059 7.07832 25.1153 6.89037C24.9649 6.7427 24.7796 6.64873 24.5648 6.61651C24.3393 6.5816 24.1191 6.60308 23.9044 6.67021C23.6197 6.75612 23.3351 6.84741 23.0532 6.9387C22.135 7.23942 21.214 7.53207 20.2689 7.74419C19.5735 7.9026 18.8728 8.04222 18.172 8.17378C17.0765 8.38052 15.9784 8.57652 14.8668 8.69466C14.6064 8.72151 14.4238 8.85039 14.2949 9.07055C14.0103 9.56458 14.1231 10.158 14.3889 10.5043C14.5017 10.6493 14.6413 10.754 14.8346 10.7728C14.9823 10.7862 15.1299 10.8104 15.2776 10.8292C15.3957 10.8426 15.5139 10.8534 15.632 10.8668C16.016 10.9124 16.3999 10.9581 16.7839 11.0037C17.0336 11.0359 17.2859 11.0655 17.5357 11.1084C17.6967 11.1353 17.8525 11.1917 17.9975 11.2695C18.1747 11.3635 18.3062 11.5031 18.3868 11.6857C18.4351 11.7931 18.4754 11.9085 18.4942 12.024C18.5371 12.2871 18.5801 12.5529 18.5855 12.8214C18.6069 13.9088 18.6445 14.9936 18.658 16.081C18.6875 18.5672 18.6929 21.0535 18.6284 23.5424C18.5855 25.2259 18.5882 26.9067 18.5935 28.5901C18.5935 28.6653 18.5989 28.7378 18.6043 28.813C18.6069 28.8613 18.666 28.9231 18.7197 28.9365C18.7627 28.9472 18.8056 28.958 18.8513 28.966C19.1305 29.0036 19.4124 29.0439 19.6917 29.0788C20.4005 29.1728 21.112 29.2238 21.8289 29.2265C22.3498 29.2265 22.8706 29.205 23.3915 29.1674C23.9876 29.1244 24.5756 29.0546 25.1878 28.9446L25.1931 28.9284Z" fill="#F7A401"/>
<path d="M55.8834 0C55.8969 0.0886033 55.9855 0.0993431 56.0338 0.150357C56.1224 0.238961 56.1734 0.346359 56.1627 0.469866C56.1546 0.588004 56.1412 0.706142 56.117 0.82428C55.6203 3.16824 55.1209 5.50952 54.6215 7.85348C54.2188 9.74368 53.8106 11.6366 53.4052 13.5268C53.0401 15.2425 52.6749 16.9608 52.3098 18.6792C52.0225 20.0324 51.7298 21.3856 51.4425 22.7388C51.0989 24.3552 50.7605 25.9715 50.4169 27.5852C50.1618 28.7773 49.9014 29.9694 49.6463 31.1642C49.3724 32.4449 49.1012 33.7257 48.8301 35.0064C48.5079 36.5207 48.183 38.0323 47.8608 39.5466C47.4581 41.4395 47.0607 43.3297 46.6579 45.2226C46.572 45.6307 46.4834 46.0361 46.3948 46.4443C46.3814 46.5033 46.3653 46.5597 46.3465 46.6161C46.2633 46.8389 46.027 46.9678 45.8095 46.9088C45.5866 46.8497 45.4309 46.6241 45.4712 46.3986C45.5142 46.1489 45.5679 45.9019 45.6189 45.6549C45.9894 43.9231 46.3626 42.194 46.7331 40.4622C47.0097 39.168 47.2835 37.8712 47.5601 36.5771C47.8823 35.0628 48.2072 33.5511 48.5294 32.0368C48.8032 30.7561 49.0744 29.4754 49.3456 28.1947C49.6382 26.828 49.9309 25.4587 50.2209 24.0921C50.5645 22.4757 50.9029 20.8594 51.2465 19.2457C51.5875 17.6455 51.9339 16.0453 52.2775 14.445C52.6212 12.8287 52.9595 11.2123 53.3032 9.59869C53.6442 7.99847 53.9905 6.39824 54.3342 4.79801C54.6135 3.48775 54.89 2.17749 55.1666 0.867239C55.1934 0.735676 55.2283 0.606799 55.2525 0.475236C55.2847 0.284605 55.3679 0.139617 55.5559 0.0671237C55.58 0.0590689 55.5961 0.0268495 55.6149 0.0053699C55.7035 0.0053699 55.7948 0.0053699 55.8834 0.0053699V0Z" fill="black"/>
<path d="M87.2865 16.0324C87.4395 16.2015 87.5013 16.3734 87.5819 16.5318C88.5511 18.4435 89.5177 20.3551 90.487 22.2668C90.5729 22.4387 90.6722 22.6051 90.7689 22.7716C90.7769 22.7823 90.8333 22.785 90.8414 22.7716C90.8951 22.7018 90.9461 22.6293 90.9864 22.5514C91.2495 22.0332 91.5072 21.515 91.7677 20.9942C92.5222 19.4906 93.2766 17.9897 94.0338 16.4861C94.0472 16.4593 94.0579 16.4324 94.0714 16.4056C94.2996 15.9814 94.2056 16.0243 94.7158 16.0216C95.4004 16.0216 96.0851 16.0216 96.7724 16.0216C96.8449 16.0216 96.9201 16.0324 96.9926 16.0485C97.0168 16.0539 97.0409 16.0861 97.0517 16.1102C97.0651 16.1505 97.0705 16.1962 97.0732 16.2418C97.0758 16.3599 97.0732 16.4808 97.0732 16.5989C97.0732 19.9497 97.0732 23.3005 97.0732 26.6514C97.0732 26.7695 97.0732 26.8903 97.0732 27.0084C97.0678 27.1964 97.0302 27.2313 96.8261 27.234C96.6033 27.234 96.3804 27.234 96.1549 27.234C95.7978 27.234 95.4407 27.234 95.0836 27.234C95.0245 27.234 94.9655 27.2259 94.9064 27.2232C94.8554 27.2179 94.7963 27.1588 94.7963 27.1024C94.7909 26.9548 94.7856 26.8044 94.7856 26.6567C94.7856 24.5705 94.7856 22.487 94.7856 20.4008C94.7856 20.237 94.7963 20.0732 94.7721 19.9121C94.7372 19.9148 94.697 19.9094 94.6889 19.9229C94.6218 20.0383 94.5574 20.1565 94.4983 20.2746C93.6069 22.0762 92.7155 23.8751 91.8241 25.6767C91.7596 25.8083 91.7086 25.9533 91.6066 26.0633C91.2817 26.1009 90.3849 26.1036 90.0037 26.066C89.9043 25.9747 89.8614 25.8459 89.8023 25.7277C88.927 23.9691 88.0517 22.2104 87.1764 20.4518C87.1174 20.331 87.061 20.2102 86.9938 20.0947C86.9536 20.0249 86.9536 19.9148 86.8381 19.9094C86.7764 19.9685 86.8005 20.0437 86.8005 20.1135C86.7952 20.2773 86.8005 20.4411 86.8005 20.6048C86.8005 22.5998 86.8005 24.5974 86.8005 26.5923C86.8005 27.3306 86.8999 27.2313 86.1696 27.2367C85.7534 27.2394 85.3345 27.2367 84.9184 27.2367C84.8298 27.2367 84.7412 27.234 84.6499 27.2286C84.5774 27.2259 84.5183 27.1588 84.5156 27.0783C84.513 26.9601 84.513 26.8393 84.513 26.7212C84.513 25.8136 84.513 24.9034 84.513 23.9959C84.513 21.5097 84.513 19.0207 84.513 16.5345C84.513 15.9921 84.4619 16.0243 85.015 16.0243C85.6406 16.0243 86.2662 16.0243 86.8918 16.0243C87.0261 16.0243 87.1576 16.0297 87.2972 16.0324H87.2865Z" fill="black"/>
<path d="M78.0755 37.586C78.0943 38.5902 77.8607 39.5326 77.3721 40.4106C76.7706 41.4846 75.9034 42.2713 74.7972 42.8029C74.2441 43.0687 73.6588 43.2486 73.052 43.3264C72.5204 43.3936 71.9887 43.4177 71.4491 43.3667C70.7913 43.305 70.1576 43.1573 69.5535 42.8968C68.203 42.3088 67.1934 41.3637 66.5678 40.024C66.2483 39.342 66.0845 38.6197 66.0657 37.8679C66.0523 37.3148 66.0765 36.7671 66.2161 36.2301C66.6618 34.4956 67.7009 33.2418 69.3038 32.4551C69.9348 32.1436 70.6087 31.961 71.3121 31.8966C71.5941 31.8724 71.8733 31.8349 72.1579 31.8429C73.5836 31.8805 74.8858 32.2806 76.0027 33.1854C77.0445 34.0311 77.705 35.1159 77.9762 36.4369C78.054 36.8181 78.0702 37.2048 78.0782 37.5914L78.0755 37.586ZM75.4819 37.6666C75.4819 37.2853 75.455 36.9443 75.3637 36.6114C74.8563 34.7964 73.1137 33.7573 71.4303 34.1251C70.6597 34.2943 70.0153 34.6648 69.5052 35.2608C68.7963 36.0905 68.544 37.0678 68.6889 38.1364C68.8178 39.0923 69.2823 39.879 70.0475 40.467C70.8154 41.055 71.6773 41.2993 72.6466 41.1328C73.5272 40.9825 74.228 40.5421 74.7596 39.836C75.251 39.1836 75.4926 38.4452 75.4819 37.6666Z" fill="black"/>
<path d="M82.6907 21.6158C82.6719 23.2401 82.1054 24.639 80.9267 25.7667C80.1131 26.548 79.1385 27.0367 78.0323 27.2649C77.5651 27.3615 77.0926 27.4179 76.6146 27.4072C75.2211 27.383 73.9458 26.9937 72.8369 26.1265C71.7656 25.2888 71.0756 24.204 70.791 22.8696C70.5493 21.7339 70.6191 20.6196 71.0353 19.5349C71.4569 18.4314 72.1657 17.5507 73.143 16.8902C73.8169 16.4365 74.5526 16.1277 75.3554 15.98C75.9864 15.8646 76.62 15.8243 77.2644 15.8807C78.137 15.9559 78.9613 16.1841 79.7265 16.6083C81.2462 17.4487 82.1993 18.7187 82.5725 20.4156C82.6585 20.8076 82.7068 21.2076 82.6907 21.6131V21.6158ZM80.0997 21.5862C80.0836 20.7485 79.8258 19.9914 79.2996 19.3201C78.572 18.3911 77.2751 17.8837 76.1206 18.1173C75.4413 18.2542 74.8479 18.5334 74.3566 19.0113C73.5108 19.8303 73.1698 20.8371 73.2799 22.0078C73.3471 22.7112 73.6075 23.3341 74.0451 23.8818C74.6519 24.639 75.4413 25.0901 76.4052 25.1787C77.5168 25.278 78.4565 24.8887 79.1949 24.0537C79.8124 23.3556 80.0916 22.5233 80.0997 21.5862Z" fill="black"/>
<path d="M150.884 23.5506C151.042 23.8003 151.179 24.0151 151.316 24.2272C151.839 25.0407 152.366 25.8516 152.889 26.6651C152.97 26.7886 153.045 26.9175 153.117 27.0491C153.147 27.1028 153.134 27.1645 153.096 27.2155C152.752 27.2477 150.792 27.2477 150.422 27.2155C150.317 27.1457 150.274 27.0303 150.218 26.9282C149.761 26.1093 149.308 25.2904 148.854 24.4688C148.781 24.3399 148.709 24.2084 148.634 24.0768C148.588 24.0634 148.548 24.0419 148.505 24.0419C147.745 24.0392 146.985 24.0392 146.228 24.0392C146.115 24.0392 146.056 24.0929 146.053 24.1923C146.051 24.3104 146.051 24.4312 146.051 24.5494C146.051 25.2797 146.051 26.0073 146.051 26.7376C146.051 26.8557 146.051 26.9766 146.043 27.0947C146.04 27.1699 145.976 27.229 145.895 27.2343C145.849 27.2343 145.806 27.2397 145.761 27.2397C145.106 27.2397 144.45 27.2397 143.795 27.2397C143.736 27.2397 143.677 27.2316 143.618 27.2263C143.567 27.2209 143.513 27.1618 143.508 27.1028C143.505 27.0571 143.5 27.0142 143.5 26.9685C143.5 26.8638 143.5 26.7591 143.5 26.6571C143.5 23.3089 143.5 19.9581 143.5 16.61C143.5 16.4757 143.5 16.3415 143.503 16.2072C143.505 16.081 143.564 16.03 143.704 16.0273C143.779 16.0273 143.852 16.0273 143.927 16.0273C145.371 16.0273 146.816 16.03 148.26 16.0273C148.663 16.0273 149.066 16.0596 149.463 16.1079C149.981 16.1723 150.484 16.3066 150.956 16.5375C151.89 16.9886 152.529 17.6947 152.809 18.7042C152.892 19.005 152.948 19.3137 152.956 19.6279C152.967 20.0897 152.962 20.5515 152.862 21.0052C152.696 21.7517 152.366 22.4041 151.799 22.9277C151.635 23.0807 151.456 23.2123 151.265 23.3304C151.152 23.4002 151.037 23.4673 150.889 23.5559L150.884 23.5506ZM146.045 19.9903C146.045 20.4656 146.045 20.9408 146.045 21.416C146.045 21.5342 146.048 21.6523 146.053 21.7731C146.056 21.8537 146.11 21.902 146.198 21.9047C146.244 21.9047 146.287 21.9101 146.333 21.9101C147.047 21.9101 147.758 21.9101 148.473 21.9101C148.741 21.9101 149.007 21.8805 149.265 21.8054C149.936 21.612 150.371 21.1905 150.516 20.4951C150.564 20.2615 150.561 20.0225 150.545 19.7836C150.497 19.0801 150.159 18.5807 149.495 18.3203C149.189 18.1995 148.87 18.1404 148.54 18.1404C147.782 18.1404 147.025 18.1404 146.268 18.1404C146.223 18.1404 146.177 18.1404 146.137 18.1538C146.112 18.1619 146.078 18.1887 146.072 18.2102C146.059 18.2827 146.053 18.3579 146.053 18.4304C146.053 18.9513 146.053 19.4694 146.053 19.9903H146.045Z" fill="black"/>
<path d="M103.927 38.5979C103.879 38.6113 103.822 38.6355 103.766 38.6382C103.632 38.6462 103.497 38.6435 103.363 38.6435C101.948 38.6435 100.533 38.6435 99.1209 38.6435C98.9867 38.6435 98.8524 38.6489 98.7209 38.6543C98.6457 38.6569 98.592 38.7187 98.5866 38.8019C98.5813 38.861 98.5786 38.9201 98.5786 38.9791C98.5786 39.5886 98.5786 40.2008 98.5786 40.8103C98.5786 40.8855 98.5866 40.9579 98.6001 41.0304C98.6054 41.0519 98.635 41.0788 98.6618 41.0868C98.7021 41.1003 98.7477 41.1056 98.7934 41.1056C98.9276 41.1056 99.0619 41.1056 99.1961 41.1056C100.88 41.1056 102.56 41.1056 104.244 41.1056C104.378 41.1056 104.512 41.1137 104.644 41.1164C104.698 41.1164 104.722 41.162 104.735 41.1996C104.751 41.2399 104.751 41.2882 104.751 41.3312C104.751 41.8681 104.751 42.4024 104.751 42.9394C104.751 42.9851 104.746 43.028 104.743 43.0737C104.738 43.1435 104.668 43.2053 104.59 43.2106C104.545 43.2133 104.502 43.216 104.456 43.216C104.381 43.216 104.308 43.216 104.233 43.216C101.672 43.216 99.1102 43.216 96.5514 43.216C95.993 43.216 96.0359 43.2536 96.0359 42.7193C96.0359 39.3094 96.0359 35.9022 96.0359 32.4923C96.0359 32.4467 96.0359 32.4037 96.0359 32.3581C96.0305 32.0117 96.0574 31.9956 96.3742 31.9983C96.4628 31.9983 96.5541 31.9983 96.6427 31.9983C99.0833 31.9983 101.527 31.9983 103.967 31.9983C104.085 31.9983 104.206 31.9983 104.324 31.9983C104.37 31.9983 104.413 32.0063 104.456 32.009C104.507 32.0144 104.561 32.0734 104.566 32.1298C104.566 32.1433 104.571 32.1594 104.571 32.1728C104.571 32.7527 104.571 33.3327 104.571 33.9153C104.571 33.9449 104.571 33.9798 104.558 34.0012C104.536 34.0361 104.51 34.0764 104.475 34.0925C104.437 34.1113 104.389 34.1113 104.343 34.1113C104.225 34.1113 104.104 34.1113 103.986 34.1113C102.364 34.1113 100.74 34.1113 99.1182 34.1113C98.984 34.1113 98.8498 34.114 98.7155 34.1194C98.643 34.1194 98.5866 34.1838 98.5813 34.2671C98.5813 34.3127 98.5759 34.3557 98.5759 34.4013C98.5759 35.0108 98.5759 35.623 98.5759 36.2324C98.5759 36.3049 98.5839 36.3801 98.5974 36.4526C98.6027 36.4768 98.6323 36.4982 98.6564 36.5117C98.6806 36.5251 98.7128 36.5305 98.7424 36.5305C98.8766 36.5331 99.0108 36.5332 99.1451 36.5332C100.59 36.5332 102.034 36.5332 103.479 36.5332C103.613 36.5332 103.744 36.5412 103.879 36.5519C103.9 36.5519 103.927 36.5842 103.94 36.6083C103.954 36.6325 103.957 36.6647 103.957 36.6942C103.957 37.2903 103.957 37.8864 103.954 38.4797C103.954 38.5093 103.938 38.5361 103.927 38.5791V38.5979Z" fill="black"/>
<path d="M135.227 20.5046C135.272 20.5207 135.313 20.5449 135.353 20.5476C135.487 20.5556 135.621 20.5556 135.756 20.5556C137.2 20.5556 138.645 20.5556 140.086 20.5556C140.221 20.5556 140.355 20.5637 140.487 20.5664C140.54 20.5664 140.562 20.612 140.581 20.6496C140.594 20.6738 140.591 20.7087 140.594 20.7382C140.594 21.3047 140.594 21.8686 140.594 22.4351C140.594 22.4646 140.589 22.4942 140.586 22.5237C140.581 22.5801 140.527 22.6418 140.473 22.6445C140.339 22.6526 140.207 22.6606 140.073 22.6606C138.645 22.6606 137.214 22.6606 135.785 22.6606C135.638 22.6606 135.487 22.6687 135.339 22.6741C135.283 22.6741 135.221 22.7331 135.216 22.7841C135.211 22.8432 135.2 22.9023 135.2 22.9613C135.2 23.5869 135.2 24.2125 135.2 24.8381C135.2 24.8972 135.211 24.9563 135.216 25.0153C135.219 25.0717 135.267 25.1013 135.302 25.1039C135.45 25.1174 135.6 25.12 135.748 25.12C137.369 25.12 138.994 25.12 140.615 25.12C140.825 25.12 141.032 25.1227 141.241 25.1254C141.295 25.1254 141.354 25.1845 141.359 25.2382C141.365 25.2811 141.373 25.3268 141.373 25.3697C141.373 25.9067 141.373 26.441 141.373 26.978C141.373 27.0371 141.359 27.0962 141.343 27.1526C141.335 27.1767 141.308 27.1982 141.284 27.2116C141.26 27.225 141.228 27.2304 141.198 27.2304C141.08 27.2331 140.959 27.2358 140.841 27.2358C138.296 27.2358 135.75 27.2358 133.205 27.2358C133.071 27.2358 132.936 27.2331 132.805 27.2277C132.732 27.2277 132.673 27.1579 132.671 27.0801C132.668 26.9619 132.668 26.8411 132.668 26.723C132.668 23.3292 132.668 19.9354 132.668 16.5416C132.668 16.4235 132.668 16.3027 132.671 16.1845C132.673 16.0879 132.74 16.0288 132.845 16.0261C132.95 16.0234 133.055 16.0234 133.157 16.0234C135.672 16.0234 138.188 16.0234 140.704 16.0234C140.779 16.0234 140.852 16.0234 140.927 16.0234C141.166 16.0288 141.195 16.061 141.201 16.3188C141.201 16.3349 141.201 16.3483 141.201 16.3644C141.201 16.8558 141.201 17.3471 141.201 17.8385C141.201 17.911 141.19 17.9861 141.177 18.0586C141.171 18.0828 141.142 18.107 141.118 18.1177C141.093 18.1311 141.061 18.1365 141.032 18.1365C140.897 18.1365 140.763 18.1392 140.629 18.1392C139.007 18.1392 137.383 18.1392 135.761 18.1392C135.627 18.1392 135.493 18.1392 135.358 18.1445C135.272 18.1445 135.213 18.1982 135.208 18.2734C135.208 18.303 135.203 18.3325 135.203 18.362C135.203 19.0172 135.203 19.6723 135.203 20.3274C135.203 20.3865 135.216 20.4455 135.224 20.5073L135.227 20.5046Z" fill="black"/>
<path d="M110.503 19.6005C110.503 18.5883 110.503 17.5761 110.503 16.5638C110.503 16.4457 110.503 16.3249 110.506 16.2067C110.508 16.094 110.562 16.0376 110.661 16.0295C110.691 16.0295 110.721 16.0242 110.75 16.0242C111.435 16.0242 112.119 16.0242 112.804 16.0242C112.847 16.0242 112.898 16.0242 112.936 16.043C112.97 16.0618 113.013 16.0993 113.019 16.1343C113.035 16.2524 113.04 16.3705 113.04 16.4887C113.04 17.4552 113.04 18.4245 113.04 19.3911C113.04 20.4033 113.038 21.4155 113.04 22.4278C113.04 22.6802 113.046 22.9352 113.086 23.1849C113.215 24.0038 113.636 24.6241 114.404 24.9704C114.89 25.1906 115.406 25.2416 115.932 25.1664C116.093 25.1423 116.254 25.1047 116.407 25.051C117.14 24.8013 117.591 24.2831 117.811 23.5501C117.876 23.3353 117.916 23.1151 117.919 22.8923C117.919 22.7124 117.927 22.5352 117.927 22.3553C117.927 20.406 117.927 18.454 117.927 16.5048C117.927 16.3705 117.938 16.239 117.948 16.1047C117.948 16.0806 117.983 16.0564 118.007 16.043C118.032 16.0295 118.064 16.0215 118.093 16.0215C118.824 16.0215 119.551 16.0215 120.282 16.0215C120.311 16.0215 120.346 16.0215 120.368 16.0403C120.402 16.0644 120.44 16.0967 120.453 16.1316C120.472 16.1853 120.472 16.247 120.472 16.3061C120.472 16.486 120.472 16.6632 120.472 16.8431C120.472 18.7333 120.472 20.6235 120.472 22.5137C120.472 22.9621 120.435 23.4051 120.338 23.8427C119.962 25.5745 118.915 26.6807 117.218 27.1721C116.469 27.3896 115.701 27.454 114.92 27.3735C114.52 27.3332 114.122 27.2795 113.736 27.1667C113.333 27.0486 112.952 26.8902 112.592 26.6754C111.582 26.0686 110.957 25.1772 110.667 24.0468C110.549 23.585 110.49 23.1124 110.492 22.6318C110.492 21.6196 110.492 20.6074 110.492 19.5952L110.503 19.6005Z" fill="black"/>
<path d="M99.6917 21.6326C99.6917 19.9062 99.6917 18.177 99.6917 16.4506C99.6917 16.0291 99.6675 16.021 100.097 16.0237C101.525 16.0237 102.957 16.0237 104.385 16.0237C105.027 16.0237 105.663 16.0855 106.283 16.2654C106.893 16.4426 107.44 16.7299 107.9 17.1756C108.34 17.6025 108.627 18.1153 108.78 18.7033C108.912 19.2108 108.957 19.7289 108.917 20.2525C108.89 20.5935 108.858 20.9345 108.761 21.2647C108.428 22.4327 107.687 23.2328 106.56 23.6758C106.2 23.8181 105.824 23.904 105.437 23.9604C105.067 24.0141 104.696 24.0329 104.323 24.0329C103.743 24.0329 103.161 24.0329 102.581 24.0329C102.492 24.0329 102.403 24.041 102.315 24.0544C102.291 24.0571 102.256 24.0893 102.256 24.1108C102.242 24.2128 102.234 24.3175 102.234 24.4222C102.234 25.1955 102.234 25.9715 102.234 26.7447C102.234 26.8629 102.226 26.981 102.221 27.1018C102.218 27.1555 102.156 27.2173 102.108 27.2226C102.049 27.228 101.99 27.2334 101.931 27.2334C101.276 27.2334 100.621 27.2334 99.9655 27.2334C99.9065 27.2334 99.8447 27.2307 99.7883 27.2146C99.748 27.2038 99.7078 27.1716 99.7051 27.1233C99.697 27.0052 99.6917 26.887 99.6917 26.7662C99.6917 25.0532 99.6917 23.3402 99.6917 21.6299V21.6326ZM102.237 20.0297C102.237 20.5371 102.237 21.0419 102.237 21.5493C102.237 21.6379 102.24 21.7292 102.258 21.8152C102.264 21.8474 102.312 21.8876 102.35 21.8957C102.422 21.9118 102.497 21.9091 102.573 21.9091C103.169 21.9091 103.765 21.9091 104.361 21.9091C104.479 21.9091 104.6 21.9038 104.718 21.8984C105.002 21.8823 105.279 21.8125 105.537 21.6943C106.076 21.4473 106.399 21.0258 106.487 20.4351C106.533 20.1371 106.533 19.8417 106.482 19.5464C106.466 19.4578 106.444 19.3718 106.417 19.2886C106.267 18.8349 105.958 18.5288 105.526 18.3489C105.209 18.2173 104.874 18.1448 104.527 18.1448C103.843 18.1448 103.158 18.1448 102.473 18.1448C102.428 18.1448 102.382 18.1448 102.342 18.1583C102.304 18.1717 102.261 18.1958 102.258 18.2495C102.256 18.3543 102.245 18.4563 102.245 18.561C102.245 19.0523 102.245 19.5437 102.245 20.035L102.237 20.0297Z" fill="black"/>
<path d="M56.6141 39.5682C56.7403 39.587 56.8075 39.6756 56.8853 39.74C57.6774 40.371 58.5607 40.8113 59.5407 41.0637C59.9462 41.1684 60.3596 41.2194 60.7785 41.198C61.0631 41.1845 61.3397 41.1255 61.6028 41.0154C61.7827 40.9402 61.9411 40.8274 62.0565 40.6664C62.3143 40.3119 62.3035 39.732 61.9572 39.3937C61.7639 39.2031 61.5383 39.0581 61.286 38.9641C61.0363 38.8701 60.7839 38.7788 60.5288 38.701C60.0455 38.5506 59.5595 38.4164 59.0789 38.2606C58.7406 38.1506 58.405 38.0244 58.0774 37.8874C57.6156 37.6968 57.229 37.3988 56.8987 37.0229C56.649 36.7383 56.4745 36.4161 56.3806 36.0482C56.2329 35.4737 56.2275 34.9018 56.3806 34.3272C56.5685 33.621 56.982 33.0733 57.57 32.6491C58.0103 32.3323 58.5043 32.1282 59.0279 31.9993C59.5649 31.8678 60.1099 31.8114 60.663 31.8168C62.0297 31.8302 63.305 32.1819 64.5052 32.829C64.5965 32.8773 64.6824 32.9364 64.771 32.9928C64.814 33.0196 64.8328 33.1028 64.814 33.1539C64.8086 33.1673 64.8059 33.1834 64.7979 33.1968C64.5133 33.8036 64.2313 34.4104 63.9441 35.0145C63.9011 35.1058 63.8555 35.1192 63.7695 35.0736C63.7051 35.0387 63.6407 35.0011 63.5735 34.9662C63.2218 34.7702 62.8567 34.6037 62.4834 34.4587C62.0673 34.2976 61.6377 34.1715 61.2027 34.0829C60.9691 34.0345 60.7329 34.005 60.4939 33.9942C60.1798 33.9808 59.8683 34.0184 59.5756 34.1366C59.4682 34.1822 59.3608 34.2413 59.2669 34.3111C59.1085 34.4346 59.0199 34.6037 58.9984 34.8051C58.9474 35.2535 59.1219 35.5945 59.5058 35.8146C59.7099 35.9328 59.9327 36.0268 60.1502 36.1154C60.5771 36.2926 61.0201 36.4188 61.4605 36.5503C61.9867 36.7087 62.5076 36.8886 63.0151 37.1034C63.4447 37.286 63.8205 37.5464 64.1508 37.8767C64.567 38.2929 64.8167 38.7923 64.8892 39.3695C64.9455 39.8286 64.9482 40.2878 64.8381 40.7442C64.6905 41.3591 64.3736 41.8638 63.9065 42.2854C63.501 42.6505 63.0285 42.8975 62.5157 43.0667C61.9921 43.2385 61.4497 43.3432 60.8966 43.3513C60.7785 43.3513 60.6577 43.3513 60.5395 43.3567C59.5112 43.3728 58.5312 43.1526 57.5834 42.7714C56.9444 42.5136 56.351 42.178 55.814 41.7457C55.7791 41.7188 55.7442 41.6893 55.7093 41.6598C55.6368 41.598 55.618 41.539 55.6556 41.4665C55.9429 40.8785 56.2275 40.2905 56.5175 39.7025C56.5416 39.6514 56.5873 39.6112 56.6168 39.5709L56.6141 39.5682Z" fill="black"/>
<path d="M69.9536 17.7306C69.8999 17.8809 69.7898 17.983 69.6958 18.0957C69.3119 18.5495 68.9682 19.0381 68.552 19.4651C68.544 19.4731 68.5252 19.4731 68.5037 19.4785C68.3721 19.4114 68.2889 19.2852 68.1815 19.1831C67.7465 18.7643 67.2445 18.4501 66.6726 18.2515C65.0052 17.6742 63.2466 18.4985 62.5485 20.002C62.3391 20.4531 62.2236 20.9257 62.2129 21.4251C62.2021 21.8896 62.2451 22.3487 62.4062 22.7863C62.8062 23.8764 63.5446 24.6175 64.6642 24.9611C65.3892 25.184 66.1034 25.1303 66.8095 24.8699C67.3035 24.6873 67.7519 24.4268 68.1573 24.0966C68.2728 24.0026 68.3856 23.9086 68.501 23.8147C68.5493 23.8415 68.595 23.8576 68.6218 23.8872C69.0568 24.357 69.4918 24.8269 69.924 25.2994C69.9804 25.3612 69.9724 25.4256 69.9052 25.4928C69.8301 25.5653 69.7576 25.6404 69.6797 25.7102C68.9601 26.3546 68.1412 26.8272 67.223 27.1252C66.6377 27.3158 66.0362 27.4206 65.4241 27.4098C64.0735 27.391 62.8411 27.0071 61.7725 26.1667C60.6636 25.2914 59.987 24.1503 59.7159 22.7649C59.5923 22.1285 59.5735 21.4868 59.6541 20.8532C59.8608 19.2341 60.6314 17.9373 61.9605 16.9788C62.7337 16.4203 63.601 16.0713 64.5434 15.9343C66.3933 15.6632 68.0526 16.1303 69.5186 17.2929C69.6797 17.4218 69.8462 17.5507 69.9536 17.7333V17.7306Z" fill="black"/>
<path d="M87.7199 39.8044C87.7494 39.8178 87.7817 39.8232 87.8004 39.8446C88.2354 40.3145 88.6704 40.7844 89.1053 41.2542C89.1161 41.265 89.1241 41.2784 89.1322 41.2891C89.1671 41.3348 89.1698 41.4126 89.1268 41.4529C88.9308 41.6355 88.7429 41.8288 88.5308 41.9926C87.6716 42.6638 86.7104 43.1176 85.6337 43.3082C85.196 43.3861 84.7503 43.421 84.2993 43.378C83.8697 43.3378 83.4428 43.2894 83.0239 43.174C80.8679 42.5887 79.3133 40.8622 78.9321 38.7733C78.7361 37.6994 78.7763 36.6361 79.1522 35.6051C79.6006 34.37 80.4007 33.4169 81.5177 32.7295C82.1835 32.3187 82.9085 32.0475 83.679 31.9267C85.58 31.6314 87.2769 32.1093 88.7724 33.3148C88.8878 33.4088 88.9952 33.5135 89.1 33.6182C89.1295 33.6478 89.1402 33.6961 89.159 33.7337C88.9442 34.0532 87.9991 35.2077 87.7414 35.4709C87.7065 35.4521 87.6608 35.4413 87.6286 35.4145C87.5319 35.3232 87.4407 35.2212 87.344 35.1299C86.8795 34.6949 86.3452 34.3861 85.7384 34.1955C84.3637 33.7659 82.8011 34.3271 81.9875 35.5729C81.6385 36.1072 81.4478 36.6952 81.4264 37.3369C81.4049 37.9249 81.4693 38.4968 81.7163 39.0365C82.162 40.0138 82.8897 40.6689 83.9287 40.9643C84.6886 41.1817 85.4323 41.1012 86.1546 40.8058C86.611 40.6179 87.0325 40.3682 87.4084 40.046C87.5078 39.9601 87.591 39.85 87.7199 39.8044Z" fill="black"/>
<path d="M123.589 32.0232C123.675 32.0178 123.734 32.0098 123.793 32.0098C124.465 32.0098 125.133 32.0098 125.802 32.0098C125.861 32.0098 125.92 32.0178 125.979 32.0232C126.011 32.0259 126.052 32.093 126.038 32.1252C125.995 32.2192 125.958 32.3158 125.909 32.4071C125.375 33.4033 124.838 34.3994 124.301 35.3928C123.624 36.6494 122.948 37.9086 122.274 39.1678C122.239 39.2323 122.209 39.3021 122.166 39.3638C122.054 39.533 122.029 39.7183 122.032 39.9169C122.038 40.854 122.032 41.7937 122.032 42.7308C122.032 42.8355 122.032 42.9402 122.029 43.0422C122.027 43.1684 121.97 43.2194 121.831 43.2248C121.815 43.2248 121.801 43.2248 121.785 43.2248C121.117 43.2248 120.445 43.2248 119.777 43.2248C119.731 43.2248 119.688 43.2194 119.643 43.2167C119.583 43.2114 119.524 43.1604 119.522 43.1067C119.516 42.9885 119.511 42.8704 119.511 42.7496C119.511 41.885 119.511 41.0231 119.511 40.1586C119.511 40.0539 119.506 39.9492 119.511 39.8471C119.516 39.7236 119.479 39.6162 119.42 39.5088C119.041 38.8161 118.668 38.1234 118.292 37.4307C117.385 35.7553 116.48 34.0825 115.572 32.4071C115.524 32.3158 115.478 32.2219 115.435 32.1279C115.416 32.0903 115.449 32.0259 115.484 32.0232C115.529 32.0205 115.572 32.0125 115.618 32.0125C116.302 32.0125 116.987 32.0125 117.672 32.0125C117.717 32.0125 117.76 32.0151 117.806 32.0178C117.87 32.0232 117.919 32.0581 117.951 32.1091C118.024 32.2219 118.091 32.3373 118.158 32.4528C118.939 33.8221 119.718 35.1941 120.499 36.5634C120.566 36.6789 120.639 36.7917 120.711 36.9017C120.733 36.9366 120.805 36.934 120.827 36.9017C120.883 36.8131 120.942 36.7272 120.99 36.6386C121.635 35.4814 122.279 34.3242 122.924 33.1697C123.103 32.8448 123.286 32.5199 123.469 32.195C123.498 32.144 123.536 32.0984 123.587 32.0259L123.589 32.0232Z" fill="black"/>
<path d="M126.504 16.0237C127.873 16.0237 129.242 16.0237 130.612 16.0237C130.746 16.0237 130.88 16.029 131.015 16.0317C131.074 16.0317 131.133 16.0881 131.138 16.1391C131.143 16.1821 131.149 16.2277 131.149 16.2707C131.149 16.8372 131.149 17.4011 131.149 17.9676C131.149 18.0105 131.141 18.0562 131.125 18.0965C131.117 18.1206 131.087 18.1502 131.066 18.1528C130.964 18.1663 130.859 18.177 130.757 18.177C129.924 18.177 129.089 18.177 128.257 18.177C128.139 18.177 128.018 18.177 127.9 18.1824C127.801 18.1851 127.747 18.2468 127.742 18.3569C127.739 18.416 127.739 18.475 127.739 18.5341C127.739 18.6388 127.739 18.7435 127.739 18.8456C127.739 21.45 127.739 24.0544 127.739 26.6615C127.739 26.8091 127.734 26.9595 127.728 27.1072C127.728 27.1609 127.666 27.2146 127.61 27.2199C127.551 27.2253 127.492 27.2307 127.433 27.2307C126.794 27.2307 126.152 27.2307 125.513 27.2307C125.441 27.2307 125.365 27.2226 125.293 27.2092C125.269 27.2038 125.242 27.1743 125.231 27.1501C125.215 27.1098 125.204 27.0642 125.202 27.0212C125.196 26.887 125.196 26.7527 125.196 26.6185C125.196 23.998 125.196 21.3802 125.196 18.7596C125.196 18.612 125.188 18.4616 125.183 18.3139C125.183 18.2602 125.121 18.1958 125.073 18.1931C124.939 18.1851 124.807 18.177 124.673 18.177C123.854 18.177 123.035 18.177 122.216 18.177C121.781 18.177 121.789 18.1716 121.789 17.7662C121.789 17.3044 121.789 16.8426 121.789 16.3808C121.789 16.3056 121.794 16.2331 121.8 16.1579C121.805 16.0881 121.875 16.0237 121.95 16.021C122.068 16.0183 122.189 16.0156 122.307 16.0156C123.706 16.0156 125.105 16.0156 126.507 16.0156L126.504 16.0237Z" fill="black"/>
<path d="M110.488 32.0098C111.858 32.0098 113.227 32.0098 114.596 32.0098C114.715 32.0098 114.835 32.0098 114.954 32.0098C115.104 32.0098 115.133 32.0903 115.133 32.2085C115.133 32.7884 115.133 33.3684 115.133 33.9483C115.133 33.9778 115.128 34.0074 115.125 34.0369C115.12 34.0906 115.064 34.1416 115.002 34.1443C114.884 34.1497 114.763 34.1524 114.645 34.1524C113.812 34.1524 112.977 34.1524 112.145 34.1524C112.04 34.1524 111.936 34.1524 111.834 34.1658C111.793 34.1711 111.75 34.198 111.74 34.249C111.732 34.292 111.721 34.3349 111.718 34.3806C111.715 34.5148 111.718 34.6491 111.718 34.7833C111.718 37.4011 111.718 40.0217 111.718 42.6395C111.718 42.7872 111.713 42.9375 111.705 43.0852C111.705 43.1362 111.64 43.198 111.589 43.206C111.546 43.2114 111.501 43.2194 111.458 43.2194C110.773 43.2194 110.088 43.2194 109.404 43.2194C109.361 43.2194 109.312 43.2141 109.272 43.2006C109.232 43.1872 109.192 43.1604 109.186 43.112C109.178 43.053 109.173 42.9939 109.17 42.9348C109.17 42.6663 109.17 42.3978 109.17 42.132C109.17 39.6619 109.17 37.1917 109.17 34.7216C109.17 34.5739 109.165 34.4235 109.157 34.2759C109.157 34.2195 109.095 34.1658 109.039 34.1631C108.904 34.1577 108.77 34.155 108.636 34.155C107.803 34.155 106.968 34.155 106.136 34.155C106.048 34.155 105.959 34.1443 105.87 34.1389C105.819 34.1336 105.792 34.0933 105.779 34.053C105.766 34.0127 105.766 33.9644 105.766 33.9214C105.766 33.371 105.766 32.8206 105.766 32.2702C105.766 32.2246 105.771 32.1816 105.776 32.136C105.782 32.0796 105.835 32.0205 105.889 32.0205C106.023 32.0151 106.158 32.0098 106.289 32.0098C107.688 32.0098 109.087 32.0098 110.486 32.0098H110.488Z" fill="black"/>
<path d="M68.5986 7.79708C68.5879 6.71505 68.5798 5.73235 68.5664 4.74966C68.561 4.43821 68.5369 4.12675 68.5234 3.81262C68.5234 3.76966 68.5234 3.72133 68.5449 3.68374C68.561 3.64883 68.5959 3.60856 68.6335 3.59513C68.6872 3.57634 68.7517 3.57634 68.8107 3.57634C70.4029 3.57634 71.9951 3.57634 73.5899 3.57634C73.649 3.57634 73.7108 3.57365 73.7671 3.58976C73.802 3.6005 73.8316 3.64346 73.8557 3.67837C73.8692 3.69985 73.8719 3.73475 73.8719 3.76429C73.8584 4.19656 73.8423 4.62616 73.8262 5.05843C73.8262 5.10139 73.8182 5.14972 73.7967 5.18731C73.7752 5.22221 73.7349 5.26249 73.7 5.26786C73.598 5.28397 73.4933 5.28397 73.3886 5.28665C72.763 5.28665 72.1374 5.28665 71.5118 5.28665C71.4071 5.28665 71.3024 5.28934 71.2003 5.29471C71.1278 5.29471 71.0688 5.36183 71.0661 5.44238C71.0634 5.50145 71.0607 5.56052 71.0607 5.61959C71.0607 5.91762 71.0607 6.21565 71.0607 6.51367C71.0607 6.55932 71.0661 6.60228 71.0715 6.64792C71.0768 6.70699 71.1305 6.76606 71.1842 6.76606C71.4232 6.76606 71.6595 6.76337 71.8984 6.758C72.3898 6.74727 72.8811 6.73384 73.3725 6.7231C73.4315 6.7231 73.4906 6.73116 73.5497 6.73921C73.5953 6.74458 73.6571 6.81976 73.6597 6.8654C73.6624 6.91105 73.6678 6.95401 73.6651 6.99965C73.6544 7.17686 73.6436 7.35675 73.6302 7.53396C73.6141 7.77023 73.598 8.00919 73.5792 8.24547C73.5738 8.32065 73.5067 8.39045 73.4369 8.39314C73.3188 8.39851 73.2006 8.40388 73.0798 8.40388C72.4998 8.40388 71.9199 8.40388 71.3373 8.40388C71.2782 8.40388 71.2164 8.40656 71.1601 8.41999C71.1359 8.42536 71.1117 8.45489 71.0929 8.47637C71.0849 8.48711 71.0849 8.50591 71.0849 8.51933C71.0392 9.16104 71.0634 9.95847 71.1332 9.96921C71.5762 10.0444 72.0192 9.99337 72.4649 9.99068C72.8355 9.988 73.2087 9.95847 73.5792 9.94236C73.6973 9.93699 73.8182 9.93699 73.9363 9.93699C74.0249 9.93699 74.1001 10.0202 74.092 10.1196C74.0625 10.6082 74.0276 11.0996 73.9954 11.5882C73.9954 11.6178 73.9819 11.6446 73.9739 11.6741C73.9631 11.7198 73.8907 11.7869 73.8504 11.7896C73.7457 11.795 73.6436 11.8003 73.5389 11.8003C72.9294 11.8003 72.3173 11.7923 71.7078 11.795C70.7707 11.8003 69.8337 11.8111 68.894 11.8191C68.5852 11.8191 68.5664 11.803 68.5691 11.4943C68.5798 10.2296 68.5932 8.96503 68.604 7.79977L68.5986 7.79708Z" fill="black"/>
<path d="M75.3826 7.98022C75.3745 6.85523 75.3745 6.02021 75.3611 5.18787C75.3557 4.80124 75.3289 4.41461 75.3127 4.02798C75.3101 3.93937 75.3047 3.85077 75.3047 3.75948C75.3047 3.66282 75.3745 3.58496 75.4631 3.57959C75.5222 3.5769 75.5812 3.57422 75.6403 3.57422C77.2029 3.57422 78.7656 3.57422 80.3282 3.57422C80.6451 3.57422 80.6558 3.58764 80.6477 3.8991C80.637 4.24009 80.6236 4.58376 80.6075 4.92475C80.6021 5.01335 80.5887 5.10196 80.5618 5.18519C80.5511 5.22009 80.5054 5.26037 80.4705 5.26574C80.3685 5.27916 80.2638 5.28185 80.1591 5.28185C79.5496 5.28185 78.9401 5.28185 78.3279 5.28185C78.2098 5.28185 78.089 5.28453 77.9708 5.2899C77.9145 5.2899 77.8554 5.34629 77.85 5.39998C77.8447 5.44294 77.8366 5.48859 77.8366 5.53155C77.8366 5.85911 77.8366 6.18668 77.8366 6.51424C77.8366 6.5572 77.8447 6.60284 77.85 6.6458C77.8554 6.6995 77.9145 6.75588 77.9708 6.75588C78.1776 6.75588 78.387 6.7532 78.5938 6.74783C79.1146 6.73709 79.6355 6.72098 80.1564 6.71024C80.2155 6.71024 80.2772 6.71024 80.3309 6.73172C80.3685 6.74514 80.398 6.78542 80.4195 6.82032C80.4356 6.8418 80.4383 6.87671 80.4383 6.90624C80.4115 7.35194 80.3819 7.79765 80.3524 8.24066C80.347 8.31047 80.2745 8.38296 80.2047 8.38565C80.0866 8.39102 79.9658 8.3937 79.8476 8.3937C79.2811 8.3937 78.7173 8.3937 78.1507 8.3937C78.0782 8.3937 78.0031 8.39907 77.9306 8.4125C77.9064 8.41787 77.8876 8.45009 77.8715 8.47157C77.8634 8.48231 77.8634 8.5011 77.8634 8.51453C77.8634 8.96023 77.8608 9.40593 77.8608 9.85163C77.8608 9.93486 77.9145 9.98319 78.0004 9.98856C78.0165 9.98856 78.0299 9.99125 78.046 9.99125C78.6421 9.97782 79.2355 9.96708 79.8315 9.95097C80.1295 9.94292 80.4249 9.93218 80.7229 9.92412C80.7874 9.92412 80.8679 10.0074 80.8706 10.0664C80.8706 10.0825 80.8706 10.096 80.8706 10.1121C80.8464 10.5121 80.8223 10.9149 80.7927 11.3149C80.7847 11.4331 80.7605 11.5512 80.7417 11.6667C80.7337 11.7123 80.6612 11.7714 80.6128 11.7741C80.5242 11.7794 80.4356 11.7848 80.3443 11.7848C79.9416 11.7848 79.5415 11.7794 79.1388 11.7848C78.038 11.7902 76.9371 11.7982 75.8363 11.8036C75.7772 11.8036 75.7182 11.8036 75.6591 11.8063C75.3584 11.8143 75.3396 11.7741 75.345 11.4707C75.345 11.4411 75.345 11.4116 75.345 11.3821C75.3557 10.147 75.3664 8.9119 75.3772 7.96948L75.3826 7.98022Z" fill="black"/>
<path d="M82.154 7.6861C82.154 7.03097 82.154 6.37584 82.154 5.72071C82.154 5.19983 82.1433 4.67895 82.0976 4.16076C82.0842 4.01309 82.0922 3.86273 82.0922 3.71506C82.0922 3.66136 82.1513 3.59692 82.2023 3.59155C82.2748 3.58618 82.35 3.57812 82.4252 3.57812C83.9878 3.57812 85.5505 3.57812 87.1131 3.57812C87.1883 3.57812 87.2635 3.57813 87.3333 3.59423C87.3682 3.60229 87.3977 3.64525 87.4192 3.68015C87.4326 3.70163 87.4326 3.73654 87.4326 3.76607C87.4299 4.22788 87.4031 4.68701 87.3547 5.14614C87.3467 5.22131 87.2876 5.27233 87.2017 5.2777C87.0836 5.28307 86.9627 5.28307 86.8446 5.28307C86.2056 5.28307 85.5639 5.28307 84.9249 5.28307C84.8497 5.28307 84.7745 5.28307 84.7047 5.30186C84.6698 5.30992 84.6403 5.35556 84.6188 5.39047C84.6054 5.41463 84.6027 5.44685 84.6027 5.47638C84.6027 5.84959 84.6027 6.22012 84.6027 6.59332C84.6027 6.60675 84.608 6.62286 84.6107 6.63628C84.6188 6.70341 84.6859 6.76248 84.7691 6.76248C85.0215 6.75979 85.2739 6.75442 85.529 6.74905C85.9908 6.73831 86.4526 6.72489 86.9117 6.71415C86.9708 6.71415 87.0299 6.71952 87.0889 6.72489C87.1346 6.72757 87.2044 6.79469 87.2098 6.84034C87.2151 6.8833 87.2232 6.92894 87.2205 6.9719C87.2017 7.31289 87.1775 7.65388 87.1561 7.99755C87.1507 8.07273 87.148 8.14523 87.1399 8.2204C87.1292 8.31706 87.0567 8.38956 86.9681 8.39224C86.85 8.39761 86.7291 8.39761 86.611 8.39761C86.0606 8.39761 85.5102 8.39761 84.9598 8.39761C84.8846 8.39761 84.8094 8.39761 84.7369 8.41104C84.6993 8.41909 84.6564 8.44594 84.6537 8.50232C84.6483 8.63657 84.6403 8.77082 84.6429 8.90238C84.6429 9.22994 84.6483 9.55751 84.6537 9.88507C84.6537 9.94146 84.7101 9.99247 84.7691 9.99516C84.8739 9.99784 84.9786 10.0032 85.0806 10.0005C85.6767 9.99784 86.27 9.99516 86.8661 9.94683C87.0138 9.93609 87.1641 9.93609 87.3118 9.93072C87.6044 9.91729 87.6528 9.96294 87.6313 10.2556C87.5991 10.7013 87.5722 11.147 87.5373 11.59C87.5266 11.7431 87.4675 11.7887 87.301 11.7914C87.1829 11.7941 87.0621 11.7914 86.9439 11.7914C85.4565 11.7968 83.9663 11.8048 82.4789 11.8102C82.4037 11.8102 82.3312 11.8102 82.256 11.8075C82.1889 11.8048 82.1245 11.7323 82.1218 11.6545C82.1218 11.6249 82.1191 11.5954 82.1218 11.5659C82.1406 10.2717 82.1594 8.97756 82.1782 7.68341C82.1701 7.68341 82.162 7.68341 82.1567 7.68341L82.154 7.6861Z" fill="black"/>
<path d="M90.8633 37.5776C90.8633 35.8968 90.8633 34.2134 90.8633 32.5326C90.8633 32.3984 90.8686 32.2641 90.8767 32.1325C90.8767 32.0762 90.9358 32.0225 90.9922 32.0171C91.0056 32.0171 91.0217 32.0117 91.0351 32.0117C91.7654 32.0117 92.493 32.0117 93.2234 32.0117C93.2529 32.0117 93.2878 32.0117 93.3093 32.0278C93.3442 32.052 93.3818 32.0842 93.3925 32.1191C93.4086 32.1755 93.4086 32.2373 93.4113 32.2963C93.4113 32.5648 93.4113 32.8333 93.4113 33.0991C93.4113 36.2835 93.4113 39.4678 93.4113 42.6522C93.4113 42.7998 93.4059 42.9502 93.4006 43.0979C93.4006 43.1543 93.3415 43.2106 93.2851 43.216C93.2421 43.2214 93.1965 43.2268 93.1509 43.2268C92.4823 43.2268 91.8111 43.2268 91.1425 43.2268C91.0834 43.2268 91.0217 43.2241 90.968 43.2053C90.9331 43.1918 90.8901 43.1516 90.8848 43.114C90.8686 43.0281 90.8633 42.9368 90.8633 42.8482C90.8633 42.3434 90.8633 41.8359 90.8633 41.3312C90.8633 40.08 90.8633 38.8315 90.8633 37.5803V37.5776Z" fill="black"/>
<path d="M66.7609 7.26517C66.777 8.57811 66.7851 9.48294 66.7985 10.3905C66.8039 10.7019 66.82 11.0134 66.8307 11.3248C66.8334 11.4295 66.8361 11.5316 66.8361 11.6363C66.8361 11.7168 66.7743 11.7813 66.7018 11.7866C66.6723 11.7866 66.6428 11.792 66.6132 11.792C65.8856 11.8001 65.1553 11.8054 64.4277 11.8108C64.3847 11.8108 64.3364 11.8108 64.2988 11.792C64.2639 11.7759 64.2209 11.7356 64.2156 11.7034C64.1995 11.6175 64.1995 11.5262 64.2021 11.4376C64.2102 10.1434 64.2102 8.85198 64.2478 7.55783C64.2693 6.88928 64.2478 6.22073 64.2344 5.55218C64.2263 5.00176 64.2048 4.45135 64.1914 3.90362C64.1914 3.83112 64.1914 3.75326 64.2075 3.68345C64.2156 3.64855 64.2585 3.60827 64.2934 3.59753C64.3471 3.57874 64.4116 3.58142 64.4706 3.58142C65.1687 3.57605 65.8668 3.57068 66.5676 3.56531C66.6132 3.56531 66.6616 3.55994 66.6991 3.57605C66.7341 3.59216 66.7824 3.62975 66.7851 3.65929C66.7958 3.79085 66.7958 3.9251 66.7958 4.05934C66.7824 5.2622 66.769 6.46774 66.7609 7.26517Z" fill="black"/>
<path d="M11.7803 48.9179C12.0032 48.8911 12.2395 48.8991 12.4784 48.9152C12.5321 48.9179 12.5885 48.977 12.5912 49.0334C12.5966 49.1085 12.6019 49.181 12.6019 49.2562C12.6073 50.8779 12.61 52.4996 12.6127 54.1213C12.6127 54.1509 12.6127 54.1804 12.6127 54.2099C12.6153 54.4167 12.5509 54.4435 12.3764 54.4462C12.167 54.4462 11.9602 54.4435 11.7508 54.4382C11.6917 54.4382 11.6327 54.3845 11.63 54.3308C11.6246 54.1965 11.6192 54.0623 11.6192 53.9307C11.6192 53.0984 11.6192 52.2634 11.6192 51.431C11.6192 51.3129 11.6139 51.1921 11.6031 51.0739C11.6031 51.0524 11.5655 51.031 11.5414 51.0175C11.5333 51.0122 11.5091 51.0229 11.5011 51.0336C11.4393 51.1142 11.3722 51.1947 11.3185 51.2807C10.9158 51.9573 10.5157 52.6366 10.113 53.3132C10.0297 53.4528 9.94114 53.5924 9.85522 53.732C9.82031 53.7884 9.76662 53.8099 9.70755 53.8153C9.66459 53.8206 9.61894 53.8179 9.5733 53.8233C9.40952 53.8394 9.29406 53.7803 9.20815 53.6327C8.92891 53.1601 8.63894 52.6903 8.35165 52.2204C8.11 51.8284 7.86836 51.4364 7.62671 51.0444C7.60791 51.0122 7.58375 51.0041 7.55153 51.0256C7.54079 51.031 7.53274 51.0471 7.53005 51.0578C7.52468 51.1464 7.522 51.235 7.51931 51.3236C7.51931 51.8284 7.51931 52.3358 7.51931 52.8406C7.51931 53.2434 7.51931 53.6434 7.51931 54.0462C7.51931 54.1348 7.51394 54.2234 7.51126 54.3147C7.51126 54.371 7.45487 54.4328 7.39849 54.4328C7.1461 54.4328 6.89372 54.4328 6.64133 54.4328C6.59032 54.4328 6.55541 54.3898 6.54736 54.3522C6.53125 54.2797 6.53125 54.2046 6.53125 54.1294C6.53125 52.4916 6.53125 50.8564 6.53125 49.2186C6.53125 49.1596 6.53394 49.1005 6.53931 49.0414C6.54467 48.9662 6.60374 48.9098 6.68698 48.9072C6.86418 48.9045 7.04408 48.9072 7.22128 48.9018C7.31794 48.9018 7.39312 48.9421 7.44145 49.0253C7.70189 49.4576 7.96501 49.8899 8.22277 50.3248C8.59866 50.9504 8.97187 51.576 9.34508 52.2016C9.39072 52.2768 9.43905 52.352 9.49006 52.4271C9.52497 52.4808 9.6082 52.4862 9.63774 52.4379C9.72634 52.3009 9.81494 52.164 9.89818 52.0217C10.4352 51.1115 10.9695 50.2013 11.5065 49.2911C11.5816 49.1649 11.638 49.0226 11.7723 48.9179H11.7803Z" fill="black"/>
<path d="M87.9439 51.5245C87.9547 51.5594 87.9573 51.5997 87.9761 51.6131C88.0728 51.6803 88.1802 51.7366 88.2742 51.8065C88.5668 52.0186 88.7414 52.3032 88.7816 52.663C88.7977 52.8106 88.8031 52.961 88.795 53.1087C88.7682 53.5812 88.5266 53.9195 88.1265 54.1531C87.8526 54.3142 87.5492 54.3921 87.2378 54.427C87.074 54.4458 86.9102 54.4484 86.7464 54.4511C85.898 54.4511 85.0495 54.4511 84.1984 54.4511C84.1259 54.4511 84.0507 54.4404 83.9782 54.4323C83.9272 54.427 83.9031 54.3813 83.8923 54.341C83.8789 54.2847 83.8789 54.2229 83.8789 54.1638C83.8789 52.5099 83.8789 50.856 83.8789 49.2047C83.8789 49.1457 83.887 49.0866 83.8923 49.0275C83.8977 48.9738 83.9568 48.9228 84.0158 48.9175C84.0615 48.9148 84.1044 48.9094 84.1501 48.9094C84.9556 48.9094 85.7584 48.9067 86.5639 48.9094C86.8914 48.9094 87.2163 48.9658 87.5304 49.0651C87.7318 49.1296 87.9144 49.2262 88.0755 49.3632C88.352 49.5941 88.5078 49.8894 88.5212 50.2519C88.5319 50.5392 88.5158 50.8211 88.352 51.0681C88.2876 51.1674 88.2124 51.2587 88.1319 51.3473C88.0728 51.4145 88.003 51.4708 87.9412 51.5272L87.9439 51.5245ZM85.9651 53.6322C85.9651 53.6322 85.9651 53.6322 85.9651 53.6295C86.2631 53.6295 86.5585 53.6295 86.8565 53.6295C87.023 53.6295 87.1814 53.5866 87.3318 53.5221C87.6217 53.4013 87.7748 53.1785 87.7775 52.867C87.7801 52.5556 87.6486 52.322 87.3586 52.1931C87.2781 52.1582 87.1921 52.1233 87.1062 52.1099C86.9451 52.0803 86.784 52.0508 86.6202 52.0481C86.1155 52.04 85.6107 52.0454 85.1059 52.0481C84.9985 52.0481 84.9314 52.1099 84.9314 52.2038C84.9314 52.6334 84.9314 53.0657 84.9314 53.4953C84.9314 53.5758 84.9878 53.6322 85.071 53.6322C85.3691 53.6322 85.6644 53.6322 85.9624 53.6322H85.9651ZM85.8416 51.2399C86.0054 51.2399 86.1692 51.2426 86.333 51.2399C86.4672 51.2372 86.6014 51.2238 86.733 51.2185C86.8699 51.2131 86.9961 51.1648 87.1143 51.103C87.3613 50.9768 87.4928 50.7674 87.4928 50.4908C87.4928 50.2197 87.3747 49.9995 87.1196 49.876C87.0391 49.8384 86.9559 49.7981 86.8699 49.782C86.6793 49.7471 86.4914 49.7095 86.2954 49.7122C85.9383 49.7176 85.5812 49.7122 85.2241 49.7122C85.165 49.7122 85.1059 49.7176 85.0469 49.7229C84.9958 49.7283 84.9368 49.7874 84.9368 49.8438C84.9314 50.0075 84.9207 50.1713 84.9314 50.3351C84.9448 50.6143 84.8831 50.8989 84.9717 51.1728C84.9932 51.2372 85.0039 51.2346 85.8443 51.2346L85.8416 51.2399Z" fill="black"/>
<path d="M132.076 50.2412C132.162 50.3647 132.108 50.4909 132.146 50.601C132.151 50.6171 132.197 50.6386 132.216 50.6332C132.256 50.6198 132.293 50.5929 132.328 50.5634C132.616 50.3325 132.951 50.2143 133.311 50.1794C134.111 50.1016 134.946 50.4184 135.389 51.1997C135.631 51.6266 135.711 52.0938 135.663 52.5771C135.631 52.9046 135.55 53.2188 135.376 53.5061C135 54.1263 134.436 54.4404 133.727 54.5049C133.236 54.5505 132.782 54.4431 132.379 54.1478C132.369 54.1397 132.355 54.1317 132.342 54.1209C132.304 54.0968 132.258 54.0699 132.224 54.1048C132.197 54.1317 132.186 54.18 132.183 54.223C132.178 54.3277 132.178 54.4297 132.178 54.5344C132.178 54.8915 132.178 55.2486 132.178 55.6057C132.178 55.6943 132.17 55.7829 132.165 55.8715C132.162 55.9198 132.097 55.9789 132.044 55.9843C132.014 55.987 131.985 55.9923 131.955 55.995C131.88 55.995 131.807 55.995 131.732 55.995C131.134 55.995 131.176 56.0487 131.176 55.4446C131.176 53.882 131.176 52.322 131.176 50.7594C131.176 50.6251 131.179 50.4909 131.185 50.3593C131.185 50.2949 131.233 50.2358 131.287 50.2331C131.552 50.217 131.818 50.2116 132.073 50.2331L132.076 50.2412ZM134.659 52.3757C134.645 52.2227 134.645 52.1153 134.624 52.0159C134.535 51.5971 134.302 51.291 133.902 51.1192C133.719 51.0413 133.528 51.0198 133.335 51.0306C132.884 51.0547 132.535 51.2588 132.323 51.6535C132.103 52.0696 132.087 52.5126 132.283 52.9422C132.492 53.404 132.863 53.643 133.37 53.6591C134.023 53.6806 134.425 53.302 134.586 52.808C134.637 52.6549 134.64 52.4885 134.659 52.3757Z" fill="black"/>
<path d="M66.6177 51.5294C66.6177 52.3483 66.6177 53.1672 66.6177 53.9834C66.6177 54.1016 66.6177 54.2224 66.6016 54.3405C66.5989 54.3727 66.5506 54.4238 66.5184 54.4264C66.266 54.456 66.0136 54.4587 65.7639 54.4264C65.7398 54.4238 65.7075 54.3942 65.7022 54.3727C65.678 54.2895 65.6646 54.2009 65.6458 54.115C65.6377 54.0828 65.5652 54.0586 65.5357 54.0774C65.474 54.1204 65.4149 54.1633 65.3531 54.2063C65.0632 54.405 64.7356 54.4936 64.3892 54.5124C64.0885 54.5312 63.7932 54.4936 63.5113 54.3915C62.7246 54.1069 62.2762 53.5377 62.1554 52.7161C62.1043 52.3617 62.1124 52.0046 62.2198 51.6556C62.4668 50.8581 62.9984 50.3775 63.82 50.2164C64.0402 50.1735 64.2604 50.1493 64.4859 50.1789C64.8323 50.2245 65.1518 50.3265 65.431 50.544C65.4659 50.5709 65.5035 50.5977 65.5465 50.6111C65.5626 50.6165 65.6082 50.5897 65.6109 50.5709C65.6216 50.5145 65.6243 50.4527 65.6243 50.3937C65.6243 49.9614 65.6243 49.5318 65.6243 49.0995C65.6243 48.9814 65.6243 48.8605 65.6297 48.7424C65.6324 48.6404 65.6888 48.5894 65.8015 48.584C65.8767 48.5786 65.9492 48.5786 66.0244 48.5786C66.7144 48.5867 66.6151 48.4927 66.6204 49.1666C66.6258 49.956 66.6204 50.7427 66.6204 51.5321L66.6177 51.5294ZM65.6324 52.351C65.6324 52.3295 65.6377 52.257 65.6324 52.1818C65.5975 51.6475 65.2592 51.2126 64.7463 51.0729C64.2201 50.928 63.6938 51.081 63.3663 51.5482C63.1622 51.8435 63.0924 52.1765 63.1407 52.5255C63.2186 53.092 63.5676 53.5968 64.2711 53.6559C64.7517 53.6961 65.1491 53.5324 65.4229 53.1189C65.5652 52.9041 65.6431 52.6651 65.6324 52.3483V52.351Z" fill="black"/>
<path d="M52.2506 50.0954C52.1701 50.0632 52.1003 50.0417 52.0358 50.0095C51.7539 49.8672 51.4532 49.7839 51.1471 49.7276C50.8061 49.6685 50.4678 49.6739 50.1295 49.7705C50.0141 49.8054 49.9067 49.8538 49.8073 49.9209C49.708 49.988 49.6355 50.082 49.5845 50.1947C49.4959 50.3961 49.5012 50.6888 49.7509 50.874C49.9094 50.9922 50.0866 51.0647 50.2745 51.1157C50.5188 51.1801 50.7659 51.2338 51.0102 51.2983C51.2116 51.352 51.4102 51.4083 51.6089 51.4701C51.8076 51.5318 51.9982 51.6178 52.1754 51.7278C52.6748 52.0312 52.8709 52.4877 52.8037 53.0542C52.7447 53.559 52.4842 53.9429 52.0412 54.198C51.7271 54.3806 51.3888 54.4907 51.0263 54.5095C50.7148 54.5256 50.4007 54.5309 50.0892 54.5068C49.5657 54.4638 49.0716 54.3054 48.6152 54.0369C48.5884 54.0208 48.5669 54.002 48.54 53.9859C48.4273 53.9107 48.4004 53.8409 48.4487 53.7255C48.5239 53.5482 48.6018 53.371 48.685 53.1965C48.6958 53.1724 48.7253 53.1562 48.7602 53.124C48.787 53.1321 48.83 53.1401 48.8649 53.1589C49.0233 53.2422 49.1737 53.3388 49.3375 53.4086C49.8959 53.6556 50.4786 53.7254 51.0827 53.6261C51.2626 53.5966 51.4263 53.5294 51.5687 53.4167C51.7566 53.2663 51.8371 53.0032 51.7539 52.7723C51.7244 52.6917 51.6653 52.6166 51.6036 52.5575C51.5069 52.4635 51.3888 52.3964 51.2599 52.3561C51.0746 52.2997 50.892 52.238 50.7041 52.1923C50.3712 52.1118 50.0382 52.0393 49.7134 51.9292C49.5173 51.8621 49.3267 51.7789 49.1468 51.6715C48.6743 51.3922 48.4783 50.9626 48.5024 50.4337C48.5266 49.8913 48.7817 49.4725 49.2462 49.1825C49.4502 49.0563 49.6731 48.9623 49.904 48.9167C50.7444 48.7476 51.5606 48.82 52.3446 49.1879C52.3983 49.212 52.4547 49.2389 52.4976 49.2792C52.5272 49.306 52.5621 49.3624 52.5513 49.3919C52.4654 49.6282 52.3902 49.8672 52.2506 50.0981V50.0954Z" fill="black"/>
<path d="M107.598 51.5245C107.598 50.7056 107.598 49.8894 107.598 49.0704C107.598 48.9523 107.6 48.8315 107.606 48.7133C107.606 48.6516 107.659 48.5898 107.71 48.5898C107.963 48.5898 108.215 48.5898 108.468 48.5898C108.524 48.5898 108.583 48.6489 108.586 48.7053C108.591 48.7939 108.594 48.8825 108.594 48.9711C108.594 49.4168 108.594 49.8625 108.594 50.3109C108.594 50.3834 108.605 50.4586 108.613 50.5311C108.615 50.566 108.685 50.5901 108.72 50.5687C108.809 50.515 108.894 50.4532 108.986 50.4076C109.544 50.123 110.122 50.0907 110.715 50.2948C111.185 50.4586 111.48 50.7915 111.644 51.2506C111.703 51.4171 111.746 51.5916 111.746 51.7742C111.746 51.9084 111.751 52.0427 111.751 52.1769C111.751 52.773 111.751 53.3664 111.751 53.9624C111.751 54.0806 111.746 54.2014 111.743 54.3195C111.743 54.3786 111.687 54.4377 111.636 54.4377C111.383 54.4377 111.131 54.4377 110.879 54.4377C110.825 54.4377 110.771 54.3759 110.769 54.3195C110.766 54.1853 110.761 54.051 110.761 53.9195C110.761 53.3395 110.761 52.7596 110.761 52.1796C110.761 51.9863 110.747 51.7957 110.669 51.6104C110.559 51.3473 110.374 51.1808 110.095 51.0976C109.775 51.0036 109.474 51.0466 109.184 51.1808C108.846 51.3392 108.672 51.6238 108.618 51.9836C108.596 52.1286 108.594 52.279 108.594 52.4293C108.594 52.9797 108.594 53.5302 108.594 54.0806C108.594 54.1692 108.594 54.2605 108.58 54.3464C108.575 54.384 108.543 54.4269 108.492 54.4323C108.226 54.4618 107.96 54.4618 107.694 54.4323C107.643 54.4269 107.616 54.3813 107.614 54.3383C107.603 54.2202 107.603 54.102 107.603 53.9812C107.603 53.1623 107.603 52.3461 107.603 51.5272L107.598 51.5245Z" fill="black"/>
<path d="M121.946 50.5847C121.989 50.5928 122.024 50.6089 122.043 50.5981C122.121 50.5552 122.193 50.5015 122.269 50.4558C122.695 50.2061 123.155 50.1175 123.641 50.1873C123.785 50.2088 123.933 50.241 124.073 50.2894C124.594 50.4693 124.905 50.8505 125.045 51.3687C125.098 51.5674 125.125 51.7795 125.128 51.9862C125.136 52.73 125.131 53.4737 125.131 54.2174C125.131 54.2336 125.131 54.247 125.131 54.2631C125.125 54.3732 125.072 54.4376 124.972 54.4376C124.733 54.4376 124.497 54.4376 124.258 54.4376C124.212 54.4376 124.137 54.3705 124.137 54.3275C124.132 54.2094 124.126 54.0886 124.126 53.9704C124.126 53.42 124.126 52.8696 124.126 52.3192C124.126 52.142 124.118 51.9594 124.089 51.7849C124.027 51.4358 123.831 51.1969 123.477 51.0922C123.141 50.9928 122.83 51.0438 122.526 51.1888C122.269 51.3123 122.115 51.5271 122.032 51.7929C121.973 51.9782 121.949 52.1688 121.949 52.3648C121.952 52.8857 121.949 53.4066 121.949 53.9275C121.949 54.0456 121.949 54.1664 121.944 54.2846C121.944 54.3759 121.893 54.4349 121.815 54.4349C121.576 54.4376 121.34 54.4376 121.101 54.4349C121.023 54.4349 120.969 54.3705 120.966 54.2873C120.964 54.1825 120.961 54.0778 120.961 53.9758C120.961 52.3246 120.961 50.6733 120.961 49.0194C120.961 48.9012 120.969 48.7831 120.982 48.665C120.982 48.6435 121.017 48.622 121.039 48.6032C121.05 48.5952 121.066 48.5871 121.079 48.5871C121.345 48.571 121.611 48.5441 121.877 48.6005C121.89 48.6032 121.903 48.614 121.925 48.6301C121.97 48.9469 121.941 49.2745 121.946 49.602C121.952 49.9296 121.946 50.2545 121.946 50.5793V50.5847Z" fill="black"/>
<path d="M120.03 49.7516C120.006 49.7919 119.99 49.8375 119.958 49.8644C119.778 50.0174 119.633 50.2134 119.424 50.3289C119.413 50.3342 119.397 50.3342 119.367 50.3369C119.305 50.2886 119.236 50.2349 119.166 50.1785C118.793 49.8751 118.363 49.7382 117.882 49.7516C117.643 49.757 117.41 49.7838 117.182 49.8644C116.435 50.1302 115.973 50.8256 115.941 51.5586C115.922 52.0016 116.011 52.4151 116.261 52.7883C116.599 53.2904 117.082 53.5508 117.676 53.6152C118.25 53.677 118.766 53.5266 119.209 53.1507C119.244 53.1212 119.276 53.0917 119.311 53.0621C119.335 53.0433 119.359 53.0299 119.386 53.0138C119.413 53.0219 119.448 53.0245 119.467 53.0433C119.641 53.2044 119.816 53.3655 119.987 53.5293C120.033 53.5723 120.028 53.6367 119.985 53.6877C119.722 53.9831 119.399 54.1898 119.034 54.3294C118.728 54.4449 118.411 54.5201 118.078 54.5254C117.705 54.5308 117.335 54.5308 116.972 54.4234C115.987 54.1307 115.321 53.5078 115.015 52.5225C114.846 51.9694 114.843 51.4082 115.012 50.8524C115.259 50.0362 115.777 49.4455 116.553 49.1045C117.378 48.7421 118.226 48.7367 119.072 49.0562C119.41 49.1824 119.706 49.3811 119.955 49.6442C119.985 49.6737 120.004 49.7167 120.03 49.7543V49.7516Z" fill="black"/>
<path d="M71.6089 53.8232C71.5444 53.893 71.5015 53.9521 71.4478 54.0004C71.1256 54.2877 70.7363 54.4327 70.3201 54.4891C69.8261 54.5589 69.3374 54.5186 68.8756 54.3253C68.25 54.0622 67.8177 53.6138 67.6486 52.9479C67.5224 52.4458 67.5331 51.9438 67.7399 51.4605C68.0352 50.7651 68.5668 50.3596 69.3079 50.212C69.7294 50.1287 70.1375 50.1583 70.5349 50.3032C71.3404 50.5986 71.77 51.1973 71.8747 52.035C71.8962 52.2096 71.8747 52.3895 71.8693 52.5693C71.8693 52.5908 71.8344 52.6284 71.8129 52.6311C71.7243 52.6445 71.6357 52.6526 71.5471 52.6526C70.7282 52.6526 69.912 52.6526 69.0931 52.6526C68.9588 52.6526 68.8246 52.6526 68.693 52.6579C68.6286 52.6579 68.5829 52.7197 68.599 52.7761C68.736 53.2513 69.0635 53.5252 69.5361 53.6245C69.6945 53.6567 69.861 53.6702 70.0221 53.6648C70.3389 53.6541 70.6369 53.5681 70.892 53.3668C70.9376 53.3319 70.9886 53.297 71.0423 53.2728C71.0638 53.2621 71.1068 53.2728 71.1256 53.2862C71.3082 53.442 71.4478 53.6326 71.6062 53.8205L71.6089 53.8232ZM70.8786 51.9787C70.8839 51.9652 70.892 51.9518 70.8947 51.9384C70.9 51.9088 70.9108 51.8793 70.9054 51.8525C70.8195 51.4363 70.5564 51.1705 70.1644 51.0443C69.9549 50.9772 69.7321 50.9637 69.5066 51.0094C69.0206 51.106 68.7118 51.3799 68.591 51.8578C68.5829 51.8954 68.6044 51.9411 68.6098 51.9787C68.9857 52.0162 70.5564 52.0136 70.8786 51.9787Z" fill="black"/>
<path d="M142.967 53.2553C143.009 53.2795 143.055 53.2929 143.082 53.3225C143.203 53.454 143.318 53.5883 143.434 53.7252C143.501 53.8031 143.487 53.8783 143.404 53.9561C143.042 54.2971 142.596 54.4528 142.113 54.5012C141.772 54.5361 141.428 54.52 141.092 54.426C140.37 54.2273 139.847 53.8031 139.594 53.0862C139.404 52.5465 139.417 51.9988 139.637 51.4698C139.927 50.7744 140.459 50.361 141.2 50.2106C141.621 50.1274 142.029 50.1489 142.43 50.2938C143.146 50.5516 143.576 51.0671 143.742 51.8028C143.793 52.0364 143.831 52.27 143.796 52.5116C143.788 52.568 143.737 52.6297 143.686 52.6324C143.568 52.6378 143.45 52.6459 143.329 52.6459C142.494 52.6459 141.662 52.6459 140.827 52.6459C140.738 52.6459 140.649 52.6539 140.561 52.6673C140.542 52.67 140.521 52.7103 140.515 52.7371C140.507 52.764 140.512 52.7989 140.521 52.8257C140.652 53.2473 140.956 53.4943 141.366 53.6071C141.672 53.6903 141.989 53.6903 142.295 53.6071C142.438 53.5695 142.569 53.4943 142.701 53.4272C142.792 53.3789 142.873 53.3117 142.961 53.25L142.967 53.2553ZM142.811 51.9773C142.816 51.937 142.835 51.8914 142.824 51.8538C142.795 51.7545 142.762 51.6551 142.711 51.5665C142.545 51.2631 142.285 51.0886 141.946 51.0134C141.721 50.9651 141.503 50.9758 141.288 51.0349C140.888 51.1477 140.62 51.4027 140.512 51.8108C140.496 51.8699 140.502 51.9263 140.545 51.9773C140.894 52.0122 142.464 52.0122 142.811 51.9773Z" fill="black"/>
<path d="M13.8474 50.7366C13.8769 50.6936 13.8957 50.6453 13.9306 50.6265C14.0729 50.546 14.2125 50.4574 14.3629 50.3983C14.9885 50.154 15.6356 50.0868 16.2907 50.2399C16.8465 50.3715 17.26 50.6883 17.4345 51.2575C17.5043 51.4857 17.5365 51.722 17.5338 51.9609C17.5285 52.4523 17.5338 52.9436 17.5338 53.435C17.5338 53.6874 17.5338 53.9424 17.5338 54.1948C17.5338 54.2405 17.5285 54.2834 17.5258 54.3291C17.5204 54.3801 17.4613 54.4365 17.4023 54.4365C17.209 54.4418 17.0156 54.4445 16.8223 54.4445C16.6075 54.4445 16.586 54.4016 16.5807 54.2136C16.5807 54.1975 16.5807 54.1841 16.5753 54.168C16.5646 54.1196 16.5109 54.0874 16.4813 54.1089C16.4464 54.1358 16.4088 54.1599 16.3739 54.1895C16.1484 54.3747 15.8772 54.4579 15.5953 54.4955C15.2677 54.5385 14.9402 54.5251 14.6233 54.4204C14.2233 54.2888 13.9118 54.0579 13.7588 53.6444C13.5521 53.0859 13.783 52.4657 14.3119 52.1999C14.524 52.0925 14.7522 52.0173 14.9939 52.0093C15.3214 51.9985 15.649 51.9958 15.9766 51.9905C16.1242 51.9905 16.2746 51.9851 16.4223 51.9797C16.4921 51.9797 16.5485 51.8965 16.5404 51.8186C16.4921 51.3192 16.1752 51.0776 15.7698 51.0293C15.3026 50.9729 14.8489 51.032 14.4327 51.2736C14.3817 51.3031 14.3307 51.3434 14.277 51.3568C14.2421 51.3649 14.1776 51.3515 14.1615 51.3246C14.0944 51.228 14.038 51.1206 13.9843 51.0158C13.936 50.9246 13.8957 50.8279 13.8501 50.7339L13.8474 50.7366ZM15.9014 52.6483C15.9014 52.6483 15.9014 52.6456 15.9014 52.6429C15.7242 52.6429 15.547 52.6429 15.3698 52.6429C15.2328 52.6429 15.1066 52.6832 14.9804 52.7288C14.8945 52.7611 14.8274 52.8174 14.7737 52.8899C14.6019 53.1262 14.6233 53.5021 14.9724 53.682C15.3751 53.8887 15.9685 53.8001 16.3014 53.486C16.4706 53.3276 16.5807 53.1423 16.5511 52.898C16.5458 52.855 16.5485 52.8094 16.5458 52.7664C16.5431 52.7047 16.4948 52.6537 16.4357 52.651C16.2585 52.651 16.0813 52.651 15.9041 52.651L15.9014 52.6483Z" fill="black"/>
<path d="M30.202 54.5178C29.5388 54.5043 28.9643 54.3057 28.5078 53.8224C28.0729 53.3632 27.901 52.8074 27.9386 52.1872C27.9547 51.9053 28.0138 51.6288 28.1454 51.371C28.438 50.7911 28.9025 50.4232 29.5174 50.2514C30.0302 50.1091 30.5457 50.1306 31.0505 50.3104C31.7432 50.5575 32.4091 51.1884 32.4493 52.2436C32.4601 52.5443 32.4225 52.837 32.3178 53.1189C32.0654 53.7955 31.5714 54.209 30.8921 54.4184C30.7793 54.4533 30.6612 54.4775 30.543 54.4936C30.4249 54.5097 30.3067 54.5097 30.1993 54.5151L30.202 54.5178ZM30.2101 51.0246C29.5335 51.0032 28.975 51.5214 28.9562 52.2087C28.9535 52.343 28.9562 52.4772 28.9696 52.6088C29.0126 53.0357 29.3751 53.6022 30.0275 53.6478C30.1591 53.6559 30.296 53.6532 30.4276 53.6371C30.739 53.6022 30.9968 53.4572 31.174 53.1995C31.5177 52.7027 31.5418 52.1657 31.2733 51.6368C31.0585 51.218 30.6746 51.0354 30.2101 51.0246Z" fill="black"/>
<path d="M42.0086 51.3706C41.9952 51.3625 41.9764 51.3598 41.971 51.3491C41.8932 51.2229 41.8153 51.0967 41.7455 50.9678C41.7025 50.89 41.673 50.8067 41.6327 50.7181C41.6811 50.6725 41.716 50.6215 41.7643 50.5919C42.0999 50.3879 42.4624 50.2697 42.8517 50.2107C43.2249 50.1543 43.5901 50.1462 43.9633 50.216C44.127 50.2482 44.2801 50.2939 44.4304 50.361C44.8654 50.557 45.1419 50.89 45.252 51.3544C45.2977 51.5424 45.3299 51.733 45.3272 51.929C45.3272 52.6889 45.3272 53.4487 45.3272 54.2085C45.3272 54.2542 45.3272 54.2998 45.3138 54.3401C45.3004 54.3804 45.2762 54.426 45.2225 54.426C44.9862 54.4314 44.7473 54.4341 44.511 54.4341C44.4331 54.4341 44.3955 54.3884 44.3794 54.2891C44.3714 54.23 44.3633 54.171 44.3553 54.1012C44.3069 54.1146 44.2586 54.1173 44.2318 54.1387C44.0089 54.3294 43.7511 54.4341 43.4665 54.4824C43.0933 54.5442 42.7228 54.5281 42.363 54.4019C42.1509 54.3267 41.963 54.2112 41.7992 54.0528C41.3159 53.5803 41.3535 52.5412 42.1106 52.1922C42.3281 52.0928 42.5537 52.0123 42.7953 52.0069C43.1363 51.9962 43.48 51.9962 43.8236 51.9881C43.9579 51.9881 44.0921 51.9827 44.2264 51.9774C44.2747 51.9774 44.3365 51.9022 44.3338 51.8512C44.3016 51.3598 44.0331 51.0994 43.5981 51.0323C43.147 50.9624 42.7067 51.0215 42.2959 51.2309C42.2046 51.2766 42.1268 51.3518 42.0194 51.3625L42.0086 51.3706ZM44.3338 52.8849C44.3338 52.8527 44.3338 52.8231 44.3338 52.7936C44.3311 52.7077 44.2801 52.6486 44.2022 52.6486C43.8478 52.6486 43.4907 52.6486 43.1363 52.6459C42.9994 52.6459 42.8732 52.6862 42.7497 52.7372C42.6208 52.7882 42.5295 52.8902 42.4865 53.0218C42.3952 53.301 42.508 53.5776 42.7711 53.6904C43.2356 53.889 43.6706 53.8085 44.0626 53.5051C44.2586 53.3547 44.3714 53.1453 44.3338 52.8876V52.8849Z" fill="black"/>
<path d="M95.3871 54.0973C95.3361 54.1161 95.2904 54.1215 95.2582 54.1456C94.6997 54.5779 94.0768 54.586 93.4324 54.4141C93.2928 54.3766 93.1559 54.3041 93.0324 54.2208C92.7048 53.998 92.5169 53.6892 92.5196 53.2838C92.5196 53.1495 92.5276 53.0126 92.5598 52.8864C92.635 52.6018 92.8069 52.379 93.0673 52.2366C93.3063 52.1051 93.5586 52.0192 93.8298 52.0111C94.1708 52.0004 94.5145 52.0004 94.8582 51.995C94.9924 51.995 95.1267 51.9896 95.2609 51.9843C95.3119 51.9843 95.3656 51.9064 95.3629 51.8527C95.3334 51.3828 95.0595 51.0902 94.5762 51.0338C94.1225 50.9828 93.6848 51.0392 93.2794 51.2647C93.2042 51.3077 93.1344 51.3748 93.019 51.3694C92.8767 51.1922 92.7773 50.9774 92.6887 50.7599C92.6699 50.7143 92.6995 50.6686 92.7344 50.6445C92.8471 50.572 92.9572 50.4941 93.0807 50.4431C93.7439 50.1585 94.4312 50.0887 95.1347 50.2471C95.2931 50.282 95.4462 50.3518 95.5885 50.427C95.9321 50.6123 96.1577 50.9022 96.2651 51.2781C96.3161 51.4634 96.359 51.654 96.359 51.85C96.359 52.6528 96.359 53.4583 96.359 54.2611C96.359 54.2906 96.359 54.3282 96.3456 54.347C96.3214 54.3792 96.2839 54.4249 96.249 54.4276C96.0127 54.4356 95.7737 54.4356 95.5374 54.4356C95.473 54.4356 95.4274 54.3927 95.4166 54.3282C95.4059 54.2557 95.3978 54.1832 95.3844 54.0973H95.3871ZM94.689 52.6421C94.5252 52.6421 94.3641 52.6421 94.2003 52.6421C94.0634 52.6421 93.9372 52.6797 93.811 52.7253C93.7251 52.7548 93.658 52.8139 93.5989 52.881C93.462 53.0394 93.4351 53.4207 93.6768 53.6006C93.7358 53.6436 93.8003 53.6838 93.8674 53.7107C94.2728 53.8637 94.6568 53.802 95.0112 53.5711C95.2609 53.4073 95.4032 53.1764 95.3764 52.8596C95.3629 52.6823 95.3388 52.6448 95.175 52.6421C95.0112 52.6421 94.8501 52.6421 94.6863 52.6421H94.689Z" fill="black"/>
<path d="M126.599 51.4007C126.433 51.1725 126.341 50.955 126.237 50.7671C126.247 50.6758 126.29 50.6382 126.341 50.606C126.58 50.4502 126.841 50.3509 127.117 50.2784C127.63 50.1468 128.143 50.1227 128.661 50.2381C128.79 50.2677 128.916 50.316 129.037 50.3697C129.542 50.5979 129.802 51.006 129.883 51.543C129.899 51.645 129.904 51.7498 129.904 51.8545C129.904 52.6412 129.904 53.4305 129.904 54.2172C129.904 54.2602 129.904 54.3085 129.891 54.3488C129.877 54.3891 129.848 54.4293 129.799 54.432C129.622 54.4374 129.442 54.4428 129.265 54.4454C128.959 54.4454 129.002 54.4266 128.978 54.1743C128.97 54.1018 128.911 54.0722 128.857 54.1098C128.833 54.1259 128.806 54.142 128.785 54.1608C128.578 54.3461 128.325 54.4347 128.06 54.4803C127.689 54.5421 127.319 54.5287 126.959 54.4052C126.776 54.3434 126.607 54.2468 126.459 54.1179C125.845 53.5728 125.973 52.5445 126.69 52.1981C126.905 52.0934 127.131 52.0156 127.372 52.0075C127.67 51.9968 127.966 51.9941 128.264 51.9887C128.441 51.986 128.621 51.9833 128.798 51.9807C128.846 51.9807 128.908 51.9108 128.911 51.8625C128.916 51.4276 128.64 51.0973 128.197 51.0329C127.746 50.9684 127.308 51.0221 126.894 51.2262C126.803 51.2718 126.714 51.3255 126.594 51.3953L126.599 51.4007ZM128.905 52.6841C128.854 52.668 128.811 52.6465 128.771 52.6465C128.43 52.6438 128.092 52.6465 127.751 52.6465C127.63 52.6465 127.517 52.6761 127.405 52.7163C127.187 52.7969 127.066 52.958 127.053 53.1808C127.037 53.4091 127.152 53.5836 127.354 53.6829C127.853 53.9299 128.433 53.7474 128.715 53.4654C128.854 53.3231 128.946 53.1594 128.927 52.9499C128.919 52.864 128.913 52.7754 128.908 52.6868L128.905 52.6841Z" fill="black"/>
<path d="M98.6279 50.6277C98.6978 50.6385 98.738 50.5901 98.7837 50.5579C99.3422 50.1552 99.9624 50.0746 100.609 50.2491C101.224 50.4156 101.592 50.8398 101.729 51.4601C101.769 51.648 101.791 51.844 101.791 52.0346C101.799 52.7649 101.794 53.4926 101.791 54.2229C101.791 54.2658 101.783 54.3115 101.775 54.3544C101.767 54.4054 101.724 54.4404 101.686 54.4404C101.42 54.4457 101.152 54.4457 100.886 54.4404C100.846 54.4404 100.8 54.4081 100.797 54.3544C100.789 54.2658 100.781 54.1772 100.781 54.0886C100.781 53.4926 100.781 52.8992 100.781 52.3031C100.781 52.1394 100.776 51.9756 100.754 51.8145C100.714 51.5352 100.577 51.307 100.322 51.1728C100.107 51.06 99.8738 51.017 99.6294 51.0546C99.5408 51.0681 99.4549 51.0922 99.369 51.1164C99.028 51.2157 98.8105 51.4439 98.6978 51.7769C98.636 51.9621 98.6118 52.1528 98.6118 52.3488C98.6145 52.8858 98.6118 53.4201 98.6118 53.9571C98.6118 54.0752 98.6118 54.196 98.6065 54.3142C98.6065 54.3947 98.5501 54.4511 98.4642 54.4511C98.2252 54.4511 97.9889 54.4511 97.75 54.4511C97.6909 54.4511 97.6318 54.3947 97.6291 54.341C97.6265 54.2658 97.6211 54.1933 97.6211 54.1182C97.6211 52.9422 97.6211 51.7661 97.6211 50.5901C97.6211 50.5015 97.6211 50.4102 97.6372 50.3243C97.6426 50.284 97.6802 50.2438 97.7285 50.2438C97.9809 50.2438 98.2333 50.2411 98.4856 50.2465C98.5232 50.2465 98.5581 50.2867 98.5689 50.3377C98.5904 50.4344 98.5474 50.5445 98.6226 50.6331L98.6279 50.6277Z" fill="black"/>
<path d="M19.7384 50.2803C19.7491 50.3904 19.7625 50.5085 19.7759 50.6213C19.8135 50.6213 19.8484 50.632 19.8699 50.6213C19.9451 50.5756 20.0149 50.5165 20.0901 50.4709C20.4821 50.2239 20.9171 50.1407 21.3708 50.1756C21.5319 50.189 21.6957 50.2212 21.8514 50.2695C22.4072 50.4494 22.7482 50.8387 22.8905 51.3972C22.9415 51.5986 22.971 51.8053 22.971 52.0148C22.9684 52.7289 22.971 53.4431 22.971 54.1573C22.971 54.203 22.9684 54.2459 22.9657 54.2916C22.9603 54.3721 22.9039 54.4393 22.8314 54.4419C22.6837 54.4446 22.5334 54.4473 22.3857 54.4473C21.9615 54.4473 21.9642 54.4607 21.9669 54.0365C21.9669 53.47 21.9696 52.9062 21.9669 52.3396C21.9669 52.1624 21.9588 51.9825 21.932 51.8053C21.8702 51.4348 21.6635 51.1905 21.2903 51.0884C20.9546 50.9972 20.6405 51.0509 20.3398 51.2039C20.1008 51.3247 19.9585 51.5341 19.878 51.7812C19.8109 51.9798 19.7894 52.1866 19.7894 52.396C19.7947 52.9625 19.7894 53.5264 19.7894 54.0929C19.7894 54.1815 19.784 54.2728 19.7733 54.3587C19.7706 54.3829 19.7384 54.4178 19.7169 54.4232C19.6444 54.4366 19.5692 54.4446 19.4967 54.4446C18.6939 54.4312 18.8121 54.5681 18.8094 53.7707C18.804 52.7585 18.8094 51.7463 18.8094 50.734C18.8094 50.5998 18.8094 50.4655 18.8228 50.334C18.8255 50.3018 18.8738 50.2481 18.9033 50.2454C19.1691 50.2239 19.435 50.2051 19.7008 50.2534C19.7142 50.2534 19.7249 50.2695 19.7491 50.283L19.7384 50.2803Z" fill="black"/>
<path d="M61.1802 52.3565C61.1802 52.9365 61.1802 53.5191 61.1802 54.0991C61.1802 54.1877 61.1722 54.2763 61.1588 54.3649C61.1561 54.3863 61.1185 54.4212 61.097 54.4239C60.8446 54.4293 60.5922 54.4293 60.3398 54.4266C60.2942 54.4266 60.2647 54.381 60.2593 54.3353C60.2486 54.2467 60.2486 54.1581 60.2351 54.0695C60.2351 54.0561 60.1814 54.0319 60.168 54.0373C60.0901 54.0829 60.0203 54.1366 59.9452 54.185C59.2847 54.6092 58.6 54.6092 57.9046 54.287C57.5824 54.1366 57.3595 53.8762 57.2199 53.5513C57.126 53.3312 57.0696 53.1002 57.0561 52.8586C57.0508 52.7539 57.0508 52.6492 57.0508 52.5472C57.0508 51.9054 57.0508 51.2664 57.0508 50.6247C57.0508 50.5361 57.0535 50.4475 57.0588 50.3562C57.0588 50.2945 57.1098 50.2354 57.1635 50.2354C57.432 50.2354 57.6979 50.2354 57.9663 50.2381C57.9878 50.2381 58.0254 50.273 58.0281 50.2945C58.0415 50.3831 58.0469 50.4717 58.0469 50.5603C58.0469 51.1563 58.0496 51.7524 58.0469 52.3485C58.0469 52.5445 58.0684 52.7351 58.106 52.9257C58.1865 53.3365 58.5248 53.6023 58.9249 53.6211C59.1182 53.6292 59.3088 53.6211 59.4968 53.5513C59.7814 53.4466 59.972 53.2533 60.0848 52.9794C60.1358 52.8559 60.1734 52.727 60.1787 52.5901C60.1841 52.4424 60.1895 52.2921 60.1895 52.1444C60.1895 51.6235 60.1895 51.1026 60.1895 50.5818C60.1895 50.4932 60.1949 50.4019 60.2029 50.316C60.2056 50.2918 60.2351 50.2542 60.2566 50.2515C60.5385 50.2112 60.8178 50.2166 61.0997 50.2461C61.1212 50.2461 61.1561 50.2837 61.1588 50.3052C61.1722 50.3938 61.1775 50.4824 61.1775 50.571C61.1775 51.1671 61.1775 51.7631 61.1775 52.3592L61.1802 52.3565Z" fill="black"/>
<path d="M37.4874 52.3562C37.4874 52.9362 37.4874 53.5161 37.4874 54.0961C37.4874 54.1847 37.482 54.2733 37.4686 54.3619C37.4659 54.386 37.431 54.4182 37.4068 54.4209C37.3048 54.4317 37.2001 54.437 37.0954 54.4397C36.9611 54.4397 36.8269 54.4397 36.6953 54.4344C36.6094 54.4344 36.5691 54.3914 36.5611 54.2947C36.553 54.2196 36.5557 54.1471 36.5449 54.0719C36.5449 54.0558 36.4939 54.0289 36.4805 54.0343C36.4161 54.0692 36.3543 54.1122 36.2952 54.1524C35.6482 54.5955 34.9608 54.6089 34.2601 54.3082C33.8734 54.1417 33.621 53.8276 33.4814 53.4329C33.4116 53.2369 33.3633 53.0328 33.3633 52.8234C33.3633 52.0072 33.3633 51.1883 33.3633 50.372C33.3633 50.2834 33.4116 50.2324 33.4948 50.227C33.57 50.2244 33.6425 50.219 33.7177 50.2217C34.4641 50.2351 34.346 50.1062 34.354 50.8526C34.3594 51.3869 34.3567 51.9239 34.354 52.4582C34.354 52.6381 34.3755 52.8126 34.4265 52.9872C34.542 53.3711 34.8427 53.6074 35.2454 53.6235C35.4387 53.6316 35.6294 53.6208 35.8146 53.5483C36.0804 53.4463 36.2657 53.2637 36.3785 53.0086C36.4456 52.8583 36.4886 52.6999 36.4912 52.5334C36.4912 52.3857 36.4966 52.2354 36.4966 52.0877C36.4966 51.5534 36.4966 51.0164 36.4966 50.4821C36.4966 50.4365 36.502 50.3935 36.5047 50.3479C36.5074 50.2915 36.5611 50.2324 36.6148 50.2324C36.8671 50.2324 37.1195 50.2324 37.3719 50.2324C37.4283 50.2324 37.4766 50.2888 37.4793 50.3505C37.482 50.4687 37.4874 50.5868 37.4874 50.7076C37.4874 51.2581 37.4874 51.8085 37.4874 52.3589V52.3562Z" fill="black"/>
<path d="M72.8516 52.3156C72.8516 51.7356 72.8516 51.1557 72.8516 50.5757C72.8516 50.4871 72.8569 50.3985 72.8704 50.3099C72.873 50.2858 72.9026 50.2562 72.9267 50.2482C72.967 50.2348 73.0127 50.2321 73.0583 50.2294C73.206 50.2294 73.3563 50.2294 73.504 50.2294C73.751 50.2294 73.7806 50.224 73.7832 50.5006C73.7832 50.5301 73.7886 50.5596 73.7913 50.5892C73.7967 50.6321 73.8531 50.659 73.8906 50.6348C73.9148 50.6187 73.9443 50.608 73.9658 50.5892C74.2853 50.318 74.672 50.216 75.0774 50.173C75.362 50.1435 75.6439 50.1891 75.9124 50.2804C76.5434 50.4898 76.8629 50.9597 76.9703 51.5933C76.9864 51.6954 76.9918 51.8001 76.9918 51.9048C76.9918 52.6781 76.9918 53.4513 76.9918 54.2273C76.9918 54.2568 76.9864 54.2863 76.9864 54.3159C76.981 54.375 76.9327 54.4367 76.8817 54.4367C76.6293 54.4367 76.3769 54.4367 76.1245 54.4367C76.0681 54.4367 76.0144 54.3776 76.0118 54.3213C76.0064 54.2031 76.0037 54.0823 76.0037 53.9642C76.0037 53.3681 76.0037 52.7747 76.0037 52.1787C76.0037 51.9988 75.9956 51.8242 75.9339 51.6524C75.8292 51.3651 75.6385 51.1852 75.3432 51.0966C75.0237 51.0027 74.723 51.0429 74.433 51.1799C74.0786 51.3463 73.9094 51.6524 73.8557 52.0256C73.8343 52.1733 73.8396 52.3236 73.8396 52.4713C73.8396 53.0217 73.8396 53.5722 73.8396 54.1226C73.8396 54.1977 73.8396 54.2729 73.8262 54.3454C73.8181 54.383 73.7886 54.426 73.7376 54.4313C73.4718 54.4609 73.2033 54.4582 72.9375 54.4286C72.9133 54.4286 72.8811 54.3911 72.8784 54.3696C72.865 54.281 72.8596 54.1924 72.8596 54.1038C72.8596 53.5077 72.8596 52.9143 72.8596 52.3183L72.8516 52.3156Z" fill="black"/>
<path d="M23.7695 54.0083C23.8259 53.7989 23.9441 53.6083 24.0488 53.415C24.089 53.3425 24.1588 53.3183 24.2394 53.3586C24.575 53.5277 24.9321 53.6244 25.3026 53.6781C25.5872 53.721 25.8665 53.6969 26.1403 53.6136C26.2424 53.5841 26.3256 53.525 26.3927 53.4391C26.5109 53.2834 26.476 53.074 26.3122 52.9719C26.1833 52.8914 26.0437 52.8484 25.896 52.8243C25.692 52.7894 25.4852 52.7625 25.2785 52.7249C25.061 52.6847 24.8381 52.6497 24.6314 52.5611C24.5347 52.5209 24.4381 52.4833 24.3495 52.4296C24.0515 52.247 23.8742 51.9839 23.8662 51.6268C23.8608 51.4335 23.8581 51.2402 23.9387 51.0576C24.0353 50.832 24.1911 50.6548 24.3924 50.5179C24.5911 50.3836 24.8113 50.287 25.0449 50.2413C25.41 50.1689 25.7779 50.1447 26.1538 50.2011C26.4652 50.2467 26.7686 50.3085 27.0613 50.4212C27.1177 50.4427 27.1687 50.4749 27.2197 50.5018C27.2519 50.5179 27.2814 50.5877 27.268 50.6172C27.174 50.8025 27.0828 50.9904 26.9834 51.173C26.9485 51.2401 26.8787 51.267 26.7901 51.2267C26.3444 51.02 25.8772 50.977 25.3939 51.0227C25.2409 51.0388 25.104 51.0844 24.9831 51.1784C24.8945 51.2455 24.8462 51.3368 24.8408 51.4469C24.8355 51.5731 24.8811 51.6805 24.9939 51.7503C25.163 51.855 25.351 51.8953 25.5416 51.9302C25.8343 51.9839 26.1269 52.0376 26.4169 52.102C26.5592 52.1342 26.7015 52.1879 26.8357 52.247C27.3727 52.4806 27.515 53.0122 27.4103 53.4687C27.3459 53.7425 27.1982 53.9573 26.9754 54.1238C26.7686 54.2768 26.5377 54.3708 26.2907 54.4352C25.9094 54.5346 25.5228 54.5426 25.1389 54.5024C24.7227 54.4594 24.3199 54.352 23.9441 54.1641C23.9038 54.1453 23.8662 54.1184 23.8313 54.0916C23.8098 54.0728 23.7964 54.0459 23.7695 54.011V54.0083Z" fill="black"/>
<path d="M106.747 51.1544C106.556 51.3182 106.339 51.4175 106.138 51.541C106.07 51.5813 106.003 51.5706 105.939 51.5008C105.78 51.3182 105.598 51.1732 105.364 51.0953C104.658 50.8564 103.791 51.2564 103.702 52.1532C103.678 52.3895 103.686 52.6258 103.775 52.8567C103.949 53.3185 104.277 53.5816 104.763 53.646C105.117 53.6944 105.448 53.6326 105.729 53.4044C105.832 53.3212 105.915 53.2138 106.011 53.1144C106.057 53.1279 106.103 53.1305 106.138 53.1493C106.307 53.2433 106.473 53.3426 106.637 53.442C106.736 53.5011 106.752 53.5736 106.696 53.6622C106.481 54.0005 106.183 54.2394 105.805 54.371C105.026 54.6368 104.277 54.567 103.59 54.1105C103.05 53.7534 102.757 53.2379 102.698 52.5882C102.679 52.3653 102.685 52.1425 102.72 51.9223C102.795 51.4498 103.02 51.0551 103.38 50.7409C103.7 50.4617 104.073 50.2925 104.494 50.2174C104.838 50.1556 105.174 50.1583 105.512 50.2335C105.993 50.3409 106.401 50.5664 106.669 50.996C106.699 51.0443 106.718 51.1007 106.742 51.1598L106.747 51.1544Z" fill="black"/>
<path d="M53.8665 52.1854C53.8665 51.8739 53.8665 51.5598 53.8665 51.2483C53.8665 51.1141 53.8048 51.0523 53.6839 51.0497C53.5658 51.0443 53.445 51.0443 53.3268 51.0389C53.2436 51.0362 53.1926 50.9852 53.1926 50.8966C53.1926 50.7328 53.1899 50.5691 53.1926 50.4053C53.1926 50.3086 53.257 50.2495 53.3671 50.2495C53.931 50.2442 53.8638 50.2683 53.8719 49.7394C53.8719 49.6347 53.8746 49.5327 53.8799 49.4279C53.8826 49.3528 53.9471 49.291 54.0276 49.291C54.2639 49.291 54.5029 49.2937 54.7391 49.2991C54.7928 49.2991 54.8573 49.3608 54.86 49.4118C54.8653 49.589 54.868 49.7689 54.8734 49.9461C54.8734 50.0213 54.8814 50.0938 54.8949 50.1663C54.9002 50.1905 54.9298 50.2173 54.9566 50.2254C54.9969 50.2388 55.0425 50.2442 55.0882 50.2442C55.2815 50.2442 55.4748 50.2442 55.6681 50.2442C55.9823 50.2442 56.0091 50.2442 56.0064 50.604C56.0064 50.6926 56.0064 50.7812 56.0037 50.8725C56.0011 50.9879 55.9527 51.0389 55.8453 51.0416C55.6064 51.0443 55.3701 51.0416 55.1311 51.047C55.0721 51.047 55.013 51.0577 54.9593 51.0738C54.9351 51.0792 54.911 51.1087 54.9029 51.1356C54.8868 51.1758 54.8787 51.2215 54.8787 51.2645C54.8787 51.8444 54.8787 52.4244 54.8787 53.0043C54.8787 53.0634 54.8841 53.1224 54.8895 53.1815C54.919 53.5869 55.2761 53.7158 55.5473 53.6916C55.6198 53.6863 55.6923 53.6621 55.7621 53.6379C56.0601 53.5413 56.0037 53.5306 56.1353 53.8232C56.1595 53.8769 56.1756 53.936 56.1997 53.9897C56.3045 54.226 56.2642 54.2877 56.0145 54.387C55.5849 54.5589 55.1419 54.5669 54.7069 54.4193C54.2773 54.2716 54.0142 53.9655 53.9283 53.5225C53.8934 53.348 53.8853 53.1681 53.8799 52.9909C53.8719 52.7224 53.8799 52.4566 53.8799 52.1881H53.8773L53.8665 52.1854Z" fill="black"/>
<path d="M80.4949 53.5711C80.5191 53.5925 80.5486 53.606 80.5594 53.6301C80.6534 53.8154 80.7312 54.006 80.7876 54.202C80.7473 54.2423 80.7232 54.2853 80.6883 54.3067C80.1674 54.5779 79.6304 54.594 79.0961 54.3604C78.6745 54.1752 78.4732 53.8235 78.4168 53.3831C78.398 53.2516 78.4034 53.1146 78.4034 52.9804C78.4034 52.4434 78.4034 51.9091 78.4034 51.3721C78.4034 51.2969 78.4034 51.2217 78.3846 51.1519C78.3765 51.117 78.3309 51.0714 78.296 51.066C78.1349 51.0472 77.9711 51.0418 77.8073 51.0311C77.7536 51.0284 77.7187 50.9828 77.716 50.9479C77.708 50.7546 77.7107 50.5612 77.716 50.3679C77.716 50.3142 77.7778 50.2605 77.8368 50.2578C77.9845 50.2498 78.1349 50.2444 78.2825 50.2364C78.3416 50.2337 78.398 50.18 78.398 50.1209C78.4034 49.8819 78.4087 49.6457 78.4141 49.4067C78.4141 49.353 78.4759 49.2993 78.5322 49.2939C78.5779 49.2913 78.6208 49.2859 78.6665 49.2832C78.8142 49.2832 78.9645 49.2832 79.1122 49.2832C79.3807 49.2832 79.3887 49.3288 79.3914 49.5651C79.3914 49.745 79.3941 49.9222 79.3995 50.1021C79.3995 50.18 79.4612 50.239 79.5418 50.239C79.7807 50.2417 80.017 50.2417 80.256 50.2444C80.3151 50.2444 80.3768 50.2444 80.4332 50.2632C80.4681 50.2739 80.5164 50.3196 80.5191 50.3491C80.5298 50.5424 80.5298 50.7358 80.5245 50.9264C80.5245 50.9586 80.4788 51.0043 80.4439 51.0177C80.3902 51.0365 80.3285 51.0392 80.2694 51.0392C80.0466 51.0418 79.8237 51.0392 79.5982 51.0418C79.4371 51.0418 79.3968 51.0875 79.3941 51.262C79.3941 51.8581 79.3941 52.4541 79.3941 53.0502C79.3941 53.0663 79.3941 53.0797 79.3941 53.0958C79.3995 53.5415 79.7861 53.759 80.1647 53.6731C80.2801 53.6462 80.3902 53.6033 80.5003 53.5657L80.4949 53.5711Z" fill="black"/>
<path d="M138.88 53.555C138.939 53.6946 138.985 53.8047 139.03 53.9121C139.178 54.245 139.14 54.2933 138.781 54.4168C138.389 54.5511 137.991 54.5538 137.597 54.4222C137.111 54.2611 136.837 53.9201 136.77 53.4127C136.751 53.265 136.751 53.1146 136.751 52.967C136.751 52.4595 136.751 51.9547 136.751 51.4473C136.751 51.3587 136.745 51.2701 136.74 51.1788C136.735 51.109 136.668 51.0472 136.59 51.0445C136.456 51.0392 136.321 51.0392 136.187 51.0338C136.104 51.0311 136.058 50.9774 136.053 50.8888C136.053 50.8297 136.047 50.7707 136.047 50.7116C136.05 50.2417 135.996 50.239 136.498 50.2417C136.541 50.2417 136.587 50.2337 136.63 50.231C136.681 50.2256 136.735 50.1639 136.737 50.1075C136.743 50.0028 136.745 49.8981 136.745 49.796C136.745 49.2429 136.7 49.2859 137.245 49.2832C137.35 49.2832 137.454 49.2832 137.556 49.2886C137.664 49.2939 137.726 49.353 137.728 49.4524C137.731 49.6322 137.728 49.8095 137.734 49.9893C137.734 50.0484 137.739 50.1102 137.752 50.1665C137.758 50.1907 137.79 50.2176 137.814 50.2256C137.854 50.239 137.903 50.2417 137.946 50.2444C138.155 50.2444 138.362 50.2444 138.571 50.2471C138.816 50.2471 138.875 50.2605 138.867 50.5639C138.867 50.6982 138.856 50.8297 138.842 50.9613C138.842 50.9828 138.808 51.0123 138.783 51.0204C138.743 51.0365 138.697 51.0418 138.654 51.0418C138.416 51.0445 138.179 51.0418 137.94 51.0472C137.897 51.0472 137.852 51.0553 137.811 51.0714C137.787 51.0794 137.763 51.109 137.755 51.1331C137.742 51.1734 137.734 51.219 137.734 51.2647C137.734 51.8608 137.734 52.4568 137.734 53.0502C137.734 53.1254 137.739 53.2005 137.755 53.2704C137.795 53.4395 137.889 53.563 138.056 53.6328C138.214 53.6973 138.373 53.7134 138.536 53.6624C138.636 53.6301 138.732 53.5979 138.872 53.555H138.88Z" fill="black"/>
<path d="M145.686 50.2363C145.697 50.4189 145.705 50.5505 145.713 50.682C145.753 50.682 145.788 50.6874 145.807 50.674C145.879 50.6203 145.941 50.5558 146.014 50.5021C146.322 50.2712 146.682 50.1907 147.058 50.1719C147.104 50.1719 147.174 50.239 147.176 50.2873C147.192 50.5397 147.208 50.7894 147.163 51.0391C147.163 51.0525 147.149 51.066 147.133 51.0928C147.026 51.0982 146.908 51.1062 146.79 51.1143C146.339 51.1465 145.877 51.4231 145.777 52.0164C145.745 52.2071 145.726 52.3977 145.726 52.5937C145.726 53.085 145.726 53.5737 145.726 54.0651C145.726 54.1402 145.726 54.2127 145.721 54.2879C145.718 54.3765 145.667 54.4329 145.589 54.4356C145.35 54.4356 145.114 54.4383 144.875 54.4356C144.8 54.4356 144.746 54.3684 144.744 54.2852C144.741 54.1966 144.738 54.108 144.738 54.0167C144.738 52.8864 144.738 51.756 144.738 50.6256C144.738 50.5209 144.738 50.4162 144.754 50.3142C144.76 50.2766 144.792 50.2363 144.846 50.2309C145.111 50.2095 145.377 50.2202 145.681 50.2283L145.686 50.2363Z" fill="black"/>
<path d="M89.8413 52.3273C89.8413 51.7312 89.8413 51.1378 89.8413 50.5418C89.8413 50.4666 89.8413 50.3914 89.8574 50.3216C89.8655 50.2894 89.9138 50.2437 89.946 50.241C90.1823 50.233 90.4213 50.233 90.6575 50.233C90.7193 50.233 90.7703 50.2813 90.7757 50.3404C90.7864 50.429 90.7945 50.5176 90.8052 50.6035C90.8079 50.6384 90.8804 50.668 90.9099 50.6465C90.9448 50.6196 90.9824 50.5928 91.0146 50.5632C91.3368 50.2921 91.7208 50.1981 92.1289 50.1739C92.1853 50.1712 92.2497 50.2249 92.2497 50.2786C92.2497 50.531 92.2497 50.7834 92.2417 51.0358C92.2417 51.0573 92.2041 51.0922 92.1826 51.0949C92.0644 51.1083 91.9463 51.1083 91.8282 51.1217C91.5006 51.1539 91.2294 51.2989 91.0388 51.5674C90.9072 51.7527 90.8482 51.9702 90.8294 52.1957C90.8213 52.3138 90.8213 52.4347 90.8213 52.5528C90.8213 53.0737 90.8213 53.5946 90.8213 54.1154C90.8213 54.1745 90.8213 54.2336 90.8159 54.2926C90.8106 54.3786 90.7622 54.4376 90.6844 54.4403C90.4911 54.4457 90.2977 54.4457 90.1044 54.4484C90.0588 54.4484 90.0158 54.443 89.9702 54.4403C89.8896 54.4349 89.844 54.3812 89.8413 54.2926C89.8386 54.1745 89.8359 54.0537 89.8359 53.9355C89.8359 53.4012 89.8359 52.8642 89.8359 52.3299L89.8413 52.3273Z" fill="black"/>
<path d="M38.8047 52.3108C38.8047 51.7309 38.8047 51.1509 38.8047 50.571C38.8047 50.4824 38.8101 50.3938 38.8235 50.3052C38.8262 50.281 38.8584 50.2568 38.8852 50.2461C38.9094 50.2327 38.9443 50.2327 38.9738 50.2327C39.1833 50.2327 39.39 50.2327 39.5994 50.2327C39.688 50.2327 39.739 50.2783 39.7498 50.3588C39.7605 50.4475 39.7713 50.5334 39.7847 50.622C39.7901 50.6542 39.8223 50.673 39.8518 50.6542C39.927 50.6086 39.9968 50.5549 40.0666 50.5038C40.3781 50.2756 40.7378 50.1951 41.1137 50.1816C41.1648 50.1816 41.2211 50.238 41.2238 50.2998C41.2265 50.477 41.2319 50.6569 41.2319 50.8341C41.2319 51.0838 41.2211 51.116 40.9607 51.116C40.7969 51.116 40.6358 51.1402 40.4828 51.2019C40.1901 51.3227 39.9914 51.5241 39.884 51.8221C39.8169 52.0074 39.7927 52.1954 39.7927 52.3914C39.7927 52.8961 39.7927 53.4036 39.7927 53.9084C39.7927 54.0426 39.7901 54.1768 39.7847 54.3084C39.7847 54.3809 39.7176 54.4427 39.6397 54.4427C39.4007 54.4427 39.1645 54.44 38.9255 54.4346C38.8718 54.4346 38.8181 54.3755 38.8154 54.3191C38.8127 54.201 38.8074 54.0802 38.8074 53.9621C38.8074 53.4116 38.8074 52.8612 38.8074 52.3108H38.8047Z" fill="black"/>
<path d="M37.6605 42.5249C37.6605 42.9706 37.6605 43.4163 37.6605 43.8593C37.6605 43.9774 37.6605 44.0983 37.6605 44.2164C37.6552 44.3694 37.6068 44.4097 37.4296 44.407C37.3867 44.407 37.341 44.4017 37.2981 44.3855C37.2739 44.3775 37.2497 44.3506 37.2363 44.3265C37.2229 44.3023 37.2148 44.2701 37.2148 44.2406C37.2148 43.4082 37.2148 42.5759 37.2148 41.7436C37.2148 41.7301 37.2202 41.714 37.2202 41.7006C37.2256 41.6415 37.2766 41.5851 37.3303 41.5798C37.478 41.5637 37.6256 41.561 37.776 41.5959C37.827 41.6899 37.8807 41.7785 37.9264 41.8697C38.1358 42.2967 38.3425 42.7236 38.5519 43.1505C38.5842 43.2176 38.6271 43.2793 38.6728 43.3357C38.6808 43.3465 38.7372 43.3411 38.748 43.325C38.7909 43.2659 38.8285 43.2015 38.8607 43.1344C39.0701 42.7075 39.2742 42.2779 39.4836 41.851C39.5293 41.7597 39.5857 41.6737 39.6394 41.5798C39.7682 41.5744 39.8864 41.569 40.0045 41.569C40.1414 41.569 40.1898 41.6174 40.1925 41.757C40.1951 41.8617 40.1925 41.9637 40.1925 42.0684C40.1925 42.7075 40.1925 43.3465 40.1925 43.9855C40.1925 44.0902 40.1871 44.1922 40.179 44.2969C40.1763 44.3453 40.1146 44.399 40.0528 44.4017C39.9938 44.4017 39.9347 44.4043 39.8756 44.4017C39.7951 44.3963 39.7387 44.3399 39.7387 44.2567C39.736 43.8566 39.7333 43.4539 39.7306 43.0538C39.7306 42.9061 39.7199 42.7585 39.7145 42.6108C39.7145 42.5759 39.6904 42.5625 39.6528 42.5705C39.6394 42.5732 39.6232 42.5786 39.6179 42.5866C39.5803 42.6484 39.54 42.7128 39.5051 42.7773C39.336 43.1236 39.1668 43.4727 38.9977 43.819C38.9654 43.8861 38.9332 43.9533 38.8956 44.0177C38.8258 44.1385 38.5815 44.1412 38.509 44.0177C38.4633 43.9425 38.4231 43.862 38.3855 43.7814C38.1975 43.3948 38.0123 43.0055 37.8243 42.6188C37.8055 42.5813 37.7787 42.5437 37.7465 42.5141C37.733 42.5007 37.6954 42.5141 37.6579 42.5195L37.6605 42.5249Z" fill="#F8AB12"/>
<path d="M35.7275 41.573C36.0389 41.573 36.3504 41.573 36.6619 41.573C36.7639 41.573 36.8176 41.6321 36.8203 41.7448C36.8203 41.7878 36.8203 41.8334 36.8176 41.8791C36.8176 41.8925 36.8176 41.9113 36.8095 41.922C36.7934 41.9462 36.7719 41.9811 36.7505 41.9838C36.6484 41.9972 36.5437 41.9999 36.4417 42.0053C36.3074 42.0106 36.1759 42.016 36.0416 42.0268C36.0202 42.0268 35.9852 42.0617 35.9799 42.0831C35.9665 42.1556 35.9611 42.2281 35.9611 42.3033C35.9611 42.8081 35.9611 43.3128 35.9611 43.8176C35.9611 43.9358 35.9611 44.0539 35.9611 44.1747C35.9584 44.3734 35.9208 44.411 35.7302 44.411C35.6872 44.411 35.6389 44.4137 35.5986 44.3976C35.5637 44.3815 35.5181 44.3466 35.51 44.3143C35.4939 44.2284 35.4912 44.1371 35.4912 44.0485C35.4912 43.4847 35.4912 42.9208 35.4912 42.357C35.4912 42.2684 35.4858 42.1798 35.4751 42.0912C35.4724 42.067 35.4402 42.0321 35.4187 42.0294C35.3301 42.016 35.2415 42.0106 35.1529 42.0053C35.0052 41.9972 34.8576 41.9945 34.7099 41.9838C34.6884 41.9838 34.6562 41.9462 34.6508 41.9247C34.6401 41.8683 34.6347 41.8066 34.6374 41.7475C34.6401 41.6348 34.6938 41.5757 34.7958 41.573C34.9435 41.5703 35.0912 41.5703 35.2415 41.5703C35.4053 41.5703 35.5691 41.5703 35.7302 41.5703L35.7275 41.573Z" fill="#F7A80A"/>
</g>
<defs>
<clipPath id="clip0_241_673">
<rect width="153.131" height="56" fill="white"/>
</clipPath>
</defs>
</svg>
